<svg width="96" height="96" viewBox="0 0 96 96" fill="none" xmlns="http://www.w3.org/2000/svg">
<g filter="url(#filter0_d_297_3747)">
<rect x="24" y="24" width="48" height="48" rx="16" fill="white"/>
<g filter="url(#filter1_d_297_3747)">
<path d="M44.2129 47.4934C44.1729 47.4934 44.1463 47.4934 44.1063 47.4934C44.0396 47.4801 43.9463 47.4801 43.8663 47.4934C39.9996 47.3734 37.0796 44.3334 37.0796 40.5867C37.0796 36.7734 40.1863 33.6667 43.9996 33.6667C47.8129 33.6667 50.9196 36.7734 50.9196 40.5867C50.9063 44.3334 47.9729 47.3734 44.2529 47.4934C44.2396 47.4934 44.2263 47.4934 44.2129 47.4934ZM43.9996 35.6667C41.2929 35.6667 39.0796 37.8801 39.0796 40.5867C39.0796 43.2534 41.1596 45.4001 43.8129 45.4934C43.8929 45.4801 44.0663 45.4801 44.2396 45.4934C46.8529 45.3734 48.9063 43.2267 48.9196 40.5867C48.9196 37.8801 46.7063 35.6667 43.9996 35.6667Z" fill="#7B79DC"/>
<path d="M54.0527 47.6666C54.0127 47.6666 53.9727 47.6666 53.9327 47.6533C53.386 47.7066 52.826 47.3199 52.7727 46.7733C52.7193 46.2266 53.0527 45.7333 53.5993 45.6666C53.7593 45.6533 53.9327 45.6533 54.0793 45.6533C56.026 45.5466 57.546 43.9466 57.546 41.9866C57.546 39.9599 55.906 38.3199 53.8793 38.3199C53.3327 38.3333 52.8793 37.8799 52.8793 37.3333C52.8793 36.7866 53.3327 36.3333 53.8793 36.3333C56.9993 36.3333 59.546 38.8799 59.546 41.9999C59.546 45.0666 57.146 47.5466 54.0927 47.6666C54.0793 47.6666 54.066 47.6666 54.0527 47.6666Z" fill="#7B79DC"/>
<path d="M44.2261 62.0666C41.6128 62.0666 38.9861 61.3999 36.9995 60.0666C35.1461 58.8399 34.1328 57.1599 34.1328 55.3333C34.1328 53.5066 35.1461 51.8133 36.9995 50.5733C40.9995 47.9199 47.4795 47.9199 51.4528 50.5733C53.2928 51.7999 54.3195 53.4799 54.3195 55.3066C54.3195 57.1333 53.3061 58.8266 51.4528 60.0666C49.4528 61.3999 46.8395 62.0666 44.2261 62.0666ZM38.1061 52.2533C36.8261 53.1066 36.1328 54.1999 36.1328 55.3466C36.1328 56.4799 36.8395 57.5733 38.1061 58.4133C41.4261 60.6399 47.0261 60.6399 50.3461 58.4133C51.6261 57.5599 52.3195 56.4666 52.3195 55.3199C52.3195 54.1866 51.6128 53.0933 50.3461 52.2533C47.0261 50.0399 41.4261 50.0399 38.1061 52.2533Z" fill="#7B79DC"/>
<path d="M56.4526 59.6667C55.9859 59.6667 55.5726 59.3467 55.4792 58.8667C55.3726 58.32 55.7192 57.8 56.2526 57.68C57.0926 57.5067 57.8659 57.1734 58.4659 56.7067C59.2259 56.1334 59.6392 55.4134 59.6392 54.6534C59.6392 53.8934 59.2259 53.1734 58.4792 52.6134C57.8926 52.16 57.1592 51.84 56.2926 51.64C55.7592 51.52 55.4126 50.9867 55.5326 50.44C55.6526 49.9067 56.1859 49.56 56.7326 49.68C57.8792 49.9334 58.8792 50.3867 59.6926 51.0134C60.9326 51.9467 61.6392 53.2667 61.6392 54.6534C61.6392 56.04 60.9192 57.36 59.6792 58.3067C58.8526 58.9467 57.8126 59.4134 56.6659 59.64C56.5859 59.6667 56.5192 59.6667 56.4526 59.6667Z" fill="#7B79DC"/>
</g>
</g>
<defs>
<filter id="filter0_d_297_3747" x="0" y="0" width="96" height="96" filterUnits="userSpaceOnUse" color-interpolation-filters="sRGB">
<feFlood flood-opacity="0" result="BackgroundImageFix"/>
<feColorMatrix in="SourceAlpha" type="matrix" values="0 0 0 0 0 0 0 0 0 0 0 0 0 0 0 0 0 0 127 0" result="hardAlpha"/>
<feOffset/>
<feGaussianBlur stdDeviation="12"/>
<feComposite in2="hardAlpha" operator="out"/>
<feColorMatrix type="matrix" values="0 0 0 0 0 0 0 0 0 0 0 0 0 0 0 0 0 0 0.12 0"/>
<feBlend mode="normal" in2="BackgroundImageFix" result="effect1_dropShadow_297_3747"/>
<feBlend mode="normal" in="SourceGraphic" in2="effect1_dropShadow_297_3747" result="shape"/>
</filter>
<filter id="filter1_d_297_3747" x="28" y="32" width="40" height="40" filterUnits="userSpaceOnUse" color-interpolation-filters="sRGB">
<feFlood flood-opacity="0" result="BackgroundImageFix"/>
<feColorMatrix in="SourceAlpha" type="matrix" values="0 0 0 0 0 0 0 0 0 0 0 0 0 0 0 0 0 0 127 0" result="hardAlpha"/>
<feOffset dy="4"/>
<feGaussianBlur stdDeviation="2"/>
<feComposite in2="hardAlpha" operator="out"/>
<feColorMatrix type="matrix" values="0 0 0 0 0 0 0 0 0 0 0 0 0 0 0 0 0 0 0.25 0"/>
<feBlend mode="normal" in2="BackgroundImageFix" result="effect1_dropShadow_297_3747"/>
<feBlend mode="normal" in="SourceGraphic" in2="effect1_dropShadow_297_3747" result="shape"/>
</filter>
</defs>
</svg>
