<svg width="26" height="27" viewBox="0 0 26 27" fill="none" xmlns="http://www.w3.org/2000/svg">
<g filter="url(#filter0_d_297_7112)">
<path d="M8.45834 18.9584C9.40001 18.9584 10.3917 18.7334 11.4167 18.3001C12.4167 17.8751 13.425 17.2917 14.4083 16.5834C15.3833 15.8667 16.325 15.0667 17.2167 14.1917C18.1 13.3001 18.9 12.3584 19.6083 11.3917C20.325 10.3917 20.9 9.39175 21.3083 8.42508C21.7417 7.39175 21.9583 6.39175 21.9583 5.45008C21.9583 4.80008 21.8417 4.18341 21.6167 3.60841C21.3833 3.01675 21.0083 2.46675 20.5 1.99175C19.8583 1.35841 19.125 1.04175 18.3417 1.04175C18.0167 1.04175 17.6833 1.11675 17.4 1.25008C17.075 1.40008 16.8 1.62508 16.6 1.92508L14.6667 4.65008C14.4917 4.89175 14.3583 5.12508 14.2667 5.35841C14.1583 5.60841 14.1 5.85842 14.1 6.10008C14.1 6.41675 14.1917 6.72508 14.3667 7.01675C14.4917 7.24175 14.6833 7.48342 14.925 7.72508L15.4917 8.31675C15.4833 8.34175 15.475 8.35842 15.4667 8.37508C15.3667 8.55008 15.1667 8.85008 14.7833 9.30008C14.375 9.76675 13.9917 10.1917 13.6083 10.5834C13.1167 11.0667 12.7083 11.4501 12.325 11.7667C11.85 12.1667 11.5417 12.3667 11.3583 12.4584L11.375 12.5001L10.7667 11.9001C10.5083 11.6417 10.2583 11.4501 10.0167 11.3251C9.55834 11.0417 8.97501 10.9917 8.39168 11.2334C8.17501 11.3251 7.94168 11.4501 7.69168 11.6251L4.92501 13.5917C4.61668 13.8001 4.39168 14.0667 4.25834 14.3834C4.13334 14.7001 4.07501 14.9917 4.07501 15.2834C4.07501 15.6834 4.16668 16.0834 4.34168 16.4584C4.51668 16.8334 4.73334 17.1584 5.00834 17.4584C5.48334 17.9834 6.00001 18.3584 6.60001 18.6001C7.17501 18.8334 7.80001 18.9584 8.45834 18.9584ZM18.3417 2.29175C18.8 2.29175 19.225 2.49175 19.6333 2.89175C20.0167 3.25008 20.2833 3.64175 20.45 4.06675C20.625 4.50008 20.7083 4.95841 20.7083 5.45008C20.7083 6.22508 20.525 7.06675 20.1583 7.93342C19.7833 8.81675 19.2583 9.73341 18.5917 10.6501C17.925 11.5667 17.1667 12.4584 16.3333 13.3001C15.5 14.1251 14.6 14.8917 13.675 15.5667C12.775 16.2251 11.85 16.7584 10.9333 17.1417C9.50834 17.7501 8.17501 17.8917 7.07501 17.4334C6.65001 17.2584 6.27501 16.9917 5.93334 16.6084C5.74168 16.4001 5.59167 16.1751 5.46667 15.9084C5.36667 15.7001 5.31668 15.4834 5.31668 15.2667C5.31668 15.1334 5.34167 15.0001 5.40834 14.8501C5.43334 14.8001 5.48334 14.7084 5.64168 14.6001L8.40834 12.6334C8.57501 12.5167 8.72501 12.4334 8.86668 12.3751C9.05001 12.3001 9.12501 12.2251 9.40834 12.4001C9.57501 12.4834 9.72501 12.6084 9.89168 12.7751L10.525 13.4001C10.85 13.7167 11.35 13.7917 11.7333 13.6501L11.9583 13.5501C12.3 13.3667 12.7 13.0834 13.1417 12.7084C13.5417 12.3667 13.975 11.9667 14.5 11.4501C14.9083 11.0334 15.3167 10.5917 15.7417 10.1001C16.1333 9.64175 16.4167 9.25008 16.5917 8.92508L16.6917 8.67508C16.7417 8.48342 16.7583 8.37508 16.7583 8.25841C16.7583 7.95842 16.65 7.69175 16.4417 7.48341L15.8167 6.83342C15.65 6.66675 15.525 6.50841 15.4417 6.36675C15.375 6.25841 15.35 6.16675 15.35 6.08342C15.35 6.01675 15.375 5.91675 15.4167 5.81675C15.475 5.68341 15.5667 5.53341 15.6833 5.37508L17.6167 2.64175C17.7 2.52508 17.8 2.44175 17.925 2.38341C18.0583 2.32508 18.2 2.29175 18.3417 2.29175ZM11.375 12.5084L11.5083 13.0751L11.2833 12.4917C11.325 12.4834 11.3583 12.4917 11.375 12.5084Z" fill="#7B79DC"/>
</g>
<defs>
<filter id="filter0_d_297_7112" x="-1" y="0" width="28" height="28" filterUnits="userSpaceOnUse" color-interpolation-filters="sRGB">
<feFlood flood-opacity="0" result="BackgroundImageFix"/>
<feColorMatrix in="SourceAlpha" type="matrix" values="0 0 0 0 0 0 0 0 0 0 0 0 0 0 0 0 0 0 127 0" result="hardAlpha"/>
<feOffset dy="4"/>
<feGaussianBlur stdDeviation="2"/>
<feComposite in2="hardAlpha" operator="out"/>
<feColorMatrix type="matrix" values="0 0 0 0 0 0 0 0 0 0 0 0 0 0 0 0 0 0 0.25 0"/>
<feBlend mode="normal" in2="BackgroundImageFix" result="effect1_dropShadow_297_7112"/>
<feBlend mode="normal" in="SourceGraphic" in2="effect1_dropShadow_297_7112" result="shape"/>
</filter>
</defs>
</svg>
