<svg width="80" height="80" viewBox="0 0 80 80" fill="none" xmlns="http://www.w3.org/2000/svg">
<g clip-path="url(#clip0_42_3494)">
<rect width="80" height="80" rx="8" fill="#FEF1EA"/>
<g filter="url(#filter0_di_42_3494)">
<path d="M11.5898 52.8907H67.5898V29.2695C67.5898 26.8409 65.6035 24.8545 63.1748 24.8545H55.1471V26.06C55.1471 26.8174 54.5326 27.4319 53.7753 27.4319H52.0198C51.9063 27.7881 51.7791 28.1384 51.6402 28.475C51.4993 28.8155 51.3427 29.1521 51.1705 29.4809L52.4132 30.7236C52.9494 31.2598 52.9494 32.1268 52.4132 32.663L48.7712 36.3069C48.235 36.8412 47.368 36.8412 46.8318 36.3069L45.5891 35.0642C45.2583 35.2365 44.9217 35.395 44.5812 35.5359C44.2426 35.6768 43.8943 35.804 43.5381 35.9155V37.671C43.5381 38.4284 42.9236 39.0429 42.1663 39.0429H37.0134C36.2561 39.0429 35.6416 38.4284 35.6416 37.671V35.9155C35.2854 35.804 34.937 35.6748 34.5985 35.5359C34.258 35.395 33.9233 35.2384 33.5945 35.0662L32.3518 36.3089C31.8156 36.8432 30.9486 36.8432 30.4124 36.3089L26.7704 32.6649C26.2342 32.1287 26.2342 31.2618 26.7704 30.7255L28.0131 29.4828C27.8409 29.1521 27.6824 28.8155 27.5415 28.475C27.4025 28.1364 27.2753 27.7881 27.1618 27.4319H25.4064C24.649 27.4319 24.0365 26.8174 24.0365 26.06V24.8545H16.0068C13.5801 24.8545 11.5918 26.8428 11.5918 29.2695V52.8907H11.5898ZM67.5898 55.6344H11.5898V56.6971C11.5898 59.1257 13.5782 61.1141 16.0049 61.1141H63.1729C65.6015 61.1141 67.5879 59.1277 67.5879 56.6971V55.6344H67.5898ZM45.4403 69.3805L41.9725 63.8559H37.2091L33.7413 69.3805H45.4403ZM39.5908 16.0147C41.6535 16.0147 43.5205 16.8503 44.8708 18.2026L44.9491 18.2887C46.2545 19.6332 47.0588 21.4669 47.0588 23.4846C47.0588 25.5473 46.2231 27.4143 44.8708 28.7646C43.5205 30.1169 41.6535 30.9526 39.5908 30.9526C37.532 30.9526 35.667 30.1169 34.3147 28.7646C32.9585 27.4143 32.1229 25.5473 32.1229 23.4846C32.1229 21.4238 32.9605 19.5549 34.3108 18.2046C35.6611 16.8523 37.5301 16.0166 39.5908 16.0166V16.0147ZM42.9314 20.142C42.0762 19.2868 40.8942 18.7584 39.5908 18.7584C38.2875 18.7584 37.1054 19.2868 36.2502 20.142C35.395 20.9972 34.8666 22.1793 34.8666 23.4826C34.8666 24.788 35.395 25.968 36.2502 26.8232C37.1015 27.6785 38.2835 28.2069 39.5908 28.2069C40.8962 28.2069 42.0762 27.6785 42.9314 26.8232C43.7867 25.968 44.3151 24.786 44.3151 23.4826C44.3151 22.2067 43.8121 21.0501 42.996 20.2007L42.9314 20.14V20.142ZM43.5264 13.9617C43.0195 13.7523 42.495 13.5801 41.9627 13.4549C41.3013 13.357 40.7944 12.7875 40.7944 12.0987V10.67H38.3853V12.0987C38.3814 12.7249 37.9489 13.2905 37.3129 13.4334C36.7473 13.5606 36.1895 13.7386 35.6514 13.9617C35.1171 14.1809 34.6083 14.4451 34.1229 14.7485C33.5945 15.1046 32.8685 15.0498 32.3988 14.5821L31.3851 13.5664L29.6746 15.2769L30.6825 16.2847C31.1267 16.725 31.2226 17.4315 30.8762 17.9834C30.569 18.4688 30.297 18.9913 30.0699 19.5432C29.8586 20.052 29.6883 20.5765 29.5611 21.1107C29.4633 21.7722 28.8938 22.2791 28.2049 22.2791H26.7763V23.4826V24.6881H28.2049C28.8312 24.6921 29.3967 25.1246 29.5376 25.7606C29.6648 26.3281 29.8429 26.8839 30.068 27.4241C30.2813 27.9407 30.5338 28.4339 30.8175 28.8938C31.2168 29.43 31.1737 30.1932 30.6864 30.6805L29.6746 31.6923L31.3792 33.3949L32.391 32.3831C32.8352 31.9448 33.5378 31.8508 34.0877 32.1972C34.573 32.5045 35.0956 32.7745 35.6455 33.0015C36.1543 33.2129 36.6788 33.3851 37.215 33.5104C37.8765 33.6082 38.3833 34.1777 38.3833 34.8666V36.2952H40.7924V34.8666C40.7963 34.2403 41.2288 33.6748 41.8649 33.5319C42.4324 33.4047 42.9882 33.2266 43.5283 33.0035C44.045 32.7902 44.5382 32.5358 44.9981 32.252C45.5343 31.8528 46.2995 31.8958 46.7868 32.3831L47.7985 33.3949L49.5011 31.6923L48.4894 30.6805C48.051 30.2363 47.9571 29.5318 48.3035 28.9818C48.6087 28.4965 48.8808 27.974 49.1097 27.4241C49.3191 26.9152 49.4914 26.3908 49.6186 25.8545C49.7164 25.1931 50.2859 24.6862 50.9748 24.6862H52.4034V23.4807V22.2771H50.9748C50.3485 22.2732 49.783 21.8407 49.6401 21.2047C49.5129 20.6391 49.3328 20.0813 49.1117 19.5412C48.8866 19.0011 48.6224 18.4883 48.323 18.0128C47.9668 17.4805 48.0256 16.7524 48.4972 16.2847L49.5051 15.2769L47.7946 13.5664L46.7809 14.5821C46.3386 15.0205 45.638 15.1144 45.0881 14.768C44.6145 14.4706 44.1135 14.2064 43.5264 13.9617Z" fill="#F38401"/>
</g>
</g>
<defs>
<filter id="filter0_di_42_3494" x="3.18984" y="6.27004" width="72.8" height="75.5104" filterUnits="userSpaceOnUse" color-interpolation-filters="sRGB">
<feFlood flood-opacity="0" result="BackgroundImageFix"/>
<feColorMatrix in="SourceAlpha" type="matrix" values="0 0 0 0 0 0 0 0 0 0 0 0 0 0 0 0 0 0 127 0" result="hardAlpha"/>
<feOffset dy="4"/>
<feGaussianBlur stdDeviation="4.2"/>
<feComposite in2="hardAlpha" operator="out"/>
<feColorMatrix type="matrix" values="0 0 0 0 0.361667 0 0 0 0 0.361667 0 0 0 0 0.361667 0 0 0 0.2 0"/>
<feBlend mode="normal" in2="BackgroundImageFix" result="effect1_dropShadow_42_3494"/>
<feBlend mode="normal" in="SourceGraphic" in2="effect1_dropShadow_42_3494" result="shape"/>
<feColorMatrix in="SourceAlpha" type="matrix" values="0 0 0 0 0 0 0 0 0 0 0 0 0 0 0 0 0 0 127 0" result="hardAlpha"/>
<feOffset dy="2"/>
<feGaussianBlur stdDeviation="1.85"/>
<feComposite in2="hardAlpha" operator="arithmetic" k2="-1" k3="1"/>
<feColorMatrix type="matrix" values="0 0 0 0 1 0 0 0 0 1 0 0 0 0 1 0 0 0 0.12 0"/>
<feBlend mode="normal" in2="shape" result="effect2_innerShadow_42_3494"/>
</filter>
<clipPath id="clip0_42_3494">
<rect width="80" height="80" rx="8" fill="white"/>
</clipPath>
</defs>
</svg>
