<svg width="32" height="32" viewBox="0 0 32 32" fill="none" xmlns="http://www.w3.org/2000/svg">
<g clip-path="url(#clip0_297_4637)">
<rect width="32" height="32" rx="10" fill="#F5F2FF"/>
<g filter="url(#filter0_d_297_4637)">
<path d="M12.6665 10.7917C12.3248 10.7917 12.0415 10.5084 12.0415 10.1667V7.66675C12.0415 7.32508 12.3248 7.04175 12.6665 7.04175C13.0082 7.04175 13.2915 7.32508 13.2915 7.66675V10.1667C13.2915 10.5084 13.0082 10.7917 12.6665 10.7917Z" fill="#7B79DC"/>
<path d="M19.3335 10.7917C18.9918 10.7917 18.7085 10.5084 18.7085 10.1667V7.66675C18.7085 7.32508 18.9918 7.04175 19.3335 7.04175C19.6752 7.04175 19.9585 7.32508 19.9585 7.66675V10.1667C19.9585 10.5084 19.6752 10.7917 19.3335 10.7917Z" fill="#7B79DC"/>
<path d="M23.0832 14.2H8.9165C8.57484 14.2 8.2915 13.9166 8.2915 13.575C8.2915 13.2333 8.57484 12.95 8.9165 12.95H23.0832C23.4248 12.95 23.7082 13.2333 23.7082 13.575C23.7082 13.9166 23.4248 14.2 23.0832 14.2Z" fill="#7B79DC"/>
<path d="M19.3333 24.9584H12.6667C9.625 24.9584 7.875 23.2084 7.875 20.1667V13.0834C7.875 10.0417 9.625 8.29175 12.6667 8.29175H19.3333C22.375 8.29175 24.125 10.0417 24.125 13.0834V20.1667C24.125 23.2084 22.375 24.9584 19.3333 24.9584ZM12.6667 9.54175C10.2833 9.54175 9.125 10.7001 9.125 13.0834V20.1667C9.125 22.5501 10.2833 23.7084 12.6667 23.7084H19.3333C21.7167 23.7084 22.875 22.5501 22.875 20.1667V13.0834C22.875 10.7001 21.7167 9.54175 19.3333 9.54175H12.6667Z" fill="#7B79DC"/>
<path d="M13.0833 18.0834C12.975 18.0834 12.8667 18.0584 12.7667 18.0168C12.6667 17.9751 12.575 17.9168 12.4917 17.8418C12.4167 17.7584 12.3583 17.6668 12.3167 17.5668C12.275 17.4668 12.25 17.3584 12.25 17.2501C12.25 17.0334 12.3417 16.8168 12.4917 16.6584C12.575 16.5834 12.6667 16.5251 12.7667 16.4834C12.9167 16.4167 13.0833 16.4001 13.25 16.4334C13.3 16.4417 13.35 16.4584 13.4 16.4834C13.45 16.5001 13.5 16.5251 13.55 16.5584C13.5917 16.5918 13.6333 16.6251 13.675 16.6584C13.7083 16.7001 13.75 16.7418 13.775 16.7834C13.8083 16.8334 13.8333 16.8834 13.85 16.9334C13.875 16.9834 13.8917 17.0334 13.9 17.0834C13.9083 17.1417 13.9167 17.1918 13.9167 17.2501C13.9167 17.4668 13.825 17.6834 13.675 17.8418C13.5167 17.9918 13.3 18.0834 13.0833 18.0834Z" fill="#7B79DC"/>
<path d="M15.9998 18.0832C15.7832 18.0832 15.5665 17.9916 15.4082 17.8416C15.3748 17.7999 15.3415 17.7582 15.3082 17.7166C15.2748 17.6666 15.2498 17.6166 15.2332 17.5666C15.2082 17.5166 15.1915 17.4666 15.1832 17.4166C15.1748 17.3582 15.1665 17.3082 15.1665 17.2499C15.1665 17.1416 15.1915 17.0332 15.2332 16.9332C15.2748 16.8332 15.3332 16.7416 15.4082 16.6582C15.6415 16.4249 16.0165 16.3499 16.3165 16.4832C16.4248 16.5249 16.5082 16.5832 16.5915 16.6582C16.7415 16.8166 16.8332 17.0332 16.8332 17.2499C16.8332 17.3082 16.8248 17.3582 16.8165 17.4166C16.8082 17.4666 16.7915 17.5166 16.7665 17.5666C16.7498 17.6166 16.7248 17.6666 16.6915 17.7166C16.6582 17.7582 16.6248 17.7999 16.5915 17.8416C16.5082 17.9166 16.4248 17.9749 16.3165 18.0166C16.2165 18.0582 16.1082 18.0832 15.9998 18.0832Z" fill="#7B79DC"/>
<path d="M13.0833 21C12.975 21 12.8667 20.975 12.7667 20.9333C12.6667 20.8917 12.575 20.8333 12.4917 20.7583C12.4167 20.675 12.3583 20.5916 12.3167 20.4833C12.275 20.3833 12.25 20.275 12.25 20.1666C12.25 19.95 12.3417 19.7333 12.4917 19.575C12.575 19.5 12.6667 19.4416 12.7667 19.4C13.075 19.2666 13.4417 19.3416 13.675 19.575C13.7083 19.6166 13.75 19.6583 13.775 19.7C13.8083 19.75 13.8333 19.8 13.85 19.85C13.875 19.9 13.8917 19.95 13.9 20.0083C13.9083 20.0583 13.9167 20.1166 13.9167 20.1666C13.9167 20.3833 13.825 20.6 13.675 20.7583C13.5167 20.9083 13.3 21 13.0833 21Z" fill="#7B79DC"/>
</g>
</g>
<defs>
<filter id="filter0_d_297_4637" x="2" y="6" width="28" height="28" filterUnits="userSpaceOnUse" color-interpolation-filters="sRGB">
<feFlood flood-opacity="0" result="BackgroundImageFix"/>
<feColorMatrix in="SourceAlpha" type="matrix" values="0 0 0 0 0 0 0 0 0 0 0 0 0 0 0 0 0 0 127 0" result="hardAlpha"/>
<feOffset dy="4"/>
<feGaussianBlur stdDeviation="2"/>
<feComposite in2="hardAlpha" operator="out"/>
<feColorMatrix type="matrix" values="0 0 0 0 0 0 0 0 0 0 0 0 0 0 0 0 0 0 0.25 0"/>
<feBlend mode="normal" in2="BackgroundImageFix" result="effect1_dropShadow_297_4637"/>
<feBlend mode="normal" in="SourceGraphic" in2="effect1_dropShadow_297_4637" result="shape"/>
</filter>
<clipPath id="clip0_297_4637">
<rect width="32" height="32" rx="10" fill="white"/>
</clipPath>
</defs>
</svg>
