<svg width="32" height="32" viewBox="0 0 32 32" fill="none" xmlns="http://www.w3.org/2000/svg">
<g clip-path="url(#clip0_297_4628)">
<rect width="32" height="32" rx="10" fill="#F5F2FF"/>
<g filter="url(#filter0_d_297_4628)">
<path d="M18.4998 24.9584H13.4998C8.97484 24.9584 7.0415 23.0251 7.0415 18.5001V13.5001C7.0415 8.97508 8.97484 7.04175 13.4998 7.04175H17.6665C18.0082 7.04175 18.2915 7.32508 18.2915 7.66675C18.2915 8.00841 18.0082 8.29175 17.6665 8.29175H13.4998C9.65817 8.29175 8.2915 9.65841 8.2915 13.5001V18.5001C8.2915 22.3417 9.65817 23.7084 13.4998 23.7084H18.4998C22.3415 23.7084 23.7082 22.3417 23.7082 18.5001V14.3334C23.7082 13.9917 23.9915 13.7084 24.3332 13.7084C24.6748 13.7084 24.9582 13.9917 24.9582 14.3334V18.5001C24.9582 23.0251 23.0248 24.9584 18.4998 24.9584Z" fill="#7B79DC"/>
<path d="M24.3332 14.9584H20.9998C18.1498 14.9584 17.0415 13.8501 17.0415 11.0001V7.66674C17.0415 7.41674 17.1915 7.18341 17.4248 7.09174C17.6582 6.99174 17.9248 7.05007 18.1082 7.22507L24.7748 13.8917C24.9498 14.0667 25.0082 14.3417 24.9082 14.5751C24.8082 14.8084 24.5832 14.9584 24.3332 14.9584ZM18.2915 9.17507V11.0001C18.2915 13.1501 18.8498 13.7084 20.9998 13.7084H22.8248L18.2915 9.17507Z" fill="#7B79DC"/>
<path d="M16.8335 17.4583H11.8335C11.4918 17.4583 11.2085 17.1749 11.2085 16.8333C11.2085 16.4916 11.4918 16.2083 11.8335 16.2083H16.8335C17.1752 16.2083 17.4585 16.4916 17.4585 16.8333C17.4585 17.1749 17.1752 17.4583 16.8335 17.4583Z" fill="#7B79DC"/>
<path d="M15.1668 20.7917H11.8335C11.4918 20.7917 11.2085 20.5084 11.2085 20.1667C11.2085 19.8251 11.4918 19.5417 11.8335 19.5417H15.1668C15.5085 19.5417 15.7918 19.8251 15.7918 20.1667C15.7918 20.5084 15.5085 20.7917 15.1668 20.7917Z" fill="#7B79DC"/>
</g>
</g>
<defs>
<filter id="filter0_d_297_4628" x="2" y="6" width="28" height="28" filterUnits="userSpaceOnUse" color-interpolation-filters="sRGB">
<feFlood flood-opacity="0" result="BackgroundImageFix"/>
<feColorMatrix in="SourceAlpha" type="matrix" values="0 0 0 0 0 0 0 0 0 0 0 0 0 0 0 0 0 0 127 0" result="hardAlpha"/>
<feOffset dy="4"/>
<feGaussianBlur stdDeviation="2"/>
<feComposite in2="hardAlpha" operator="out"/>
<feColorMatrix type="matrix" values="0 0 0 0 0 0 0 0 0 0 0 0 0 0 0 0 0 0 0.25 0"/>
<feBlend mode="normal" in2="BackgroundImageFix" result="effect1_dropShadow_297_4628"/>
<feBlend mode="normal" in="SourceGraphic" in2="effect1_dropShadow_297_4628" result="shape"/>
</filter>
<clipPath id="clip0_297_4628">
<rect width="32" height="32" rx="10" fill="white"/>
</clipPath>
</defs>
</svg>
