<svg width="32" height="32" viewBox="0 0 32 32" fill="none" xmlns="http://www.w3.org/2000/svg">
<g clip-path="url(#clip0_297_4727)">
<rect width="32" height="32" rx="10" fill="#F5F2FF"/>
<g filter="url(#filter0_d_297_4727)">
<path d="M15.9998 24.9584C11.0582 24.9584 7.0415 20.9417 7.0415 16.0001C7.0415 11.0584 11.0582 7.04175 15.9998 7.04175C20.9415 7.04175 24.9582 11.0584 24.9582 16.0001C24.9582 20.9417 20.9415 24.9584 15.9998 24.9584ZM15.9998 8.29175C11.7498 8.29175 8.2915 11.7501 8.2915 16.0001C8.2915 20.2501 11.7498 23.7084 15.9998 23.7084C20.2498 23.7084 23.7082 20.2501 23.7082 16.0001C23.7082 11.7501 20.2498 8.29175 15.9998 8.29175Z" fill="#7B79DC"/>
<path d="M13.5002 24.125H12.6669C12.3252 24.125 12.0419 23.8417 12.0419 23.5C12.0419 23.1583 12.3085 22.8833 12.6502 22.875C11.3419 18.4083 11.3419 13.5917 12.6502 9.125C12.3085 9.11667 12.0419 8.84167 12.0419 8.5C12.0419 8.15833 12.3252 7.875 12.6669 7.875H13.5002C13.7002 7.875 13.8919 7.975 14.0085 8.13333C14.1252 8.3 14.1585 8.50833 14.0919 8.7C12.5252 13.4083 12.5252 18.5917 14.0919 23.3083C14.1585 23.5 14.1252 23.7083 14.0085 23.875C13.8919 24.025 13.7002 24.125 13.5002 24.125Z" fill="#7B79DC"/>
<path d="M18.5 24.125C18.4333 24.125 18.3667 24.1167 18.3 24.0917C17.975 23.9833 17.7917 23.625 17.9083 23.3C19.475 18.5917 19.475 13.4083 17.9083 8.69165C17.8 8.36665 17.975 8.00832 18.3 7.89999C18.6333 7.79165 18.9833 7.96665 19.0917 8.29165C20.75 13.2583 20.75 18.725 19.0917 23.6833C19.0083 23.9583 18.7583 24.125 18.5 24.125Z" fill="#7B79DC"/>
<path d="M16 20.3332C13.675 20.3332 11.3583 20.0082 9.125 19.3499C9.11667 19.6832 8.84167 19.9582 8.5 19.9582C8.15833 19.9582 7.875 19.6749 7.875 19.3332V18.4999C7.875 18.2999 7.975 18.1082 8.13333 17.9916C8.3 17.8749 8.50833 17.8416 8.7 17.9082C13.4083 19.4749 18.6 19.4749 23.3083 17.9082C23.5 17.8416 23.7083 17.8749 23.875 17.9916C24.0417 18.1082 24.1333 18.2999 24.1333 18.4999V19.3332C24.1333 19.6749 23.85 19.9582 23.5083 19.9582C23.1667 19.9582 22.8917 19.6916 22.8833 19.3499C20.6417 20.0082 18.325 20.3332 16 20.3332Z" fill="#7B79DC"/>
<path d="M23.5001 14.125C23.4335 14.125 23.3668 14.1166 23.3001 14.0916C18.5918 12.525 13.4001 12.525 8.69181 14.0916C8.35848 14.2 8.00848 14.025 7.90015 13.7C7.80015 13.3666 7.97515 13.0166 8.30015 12.9083C13.2668 11.25 18.7335 11.25 23.6918 12.9083C24.0168 13.0166 24.2001 13.375 24.0835 13.7C24.0085 13.9583 23.7585 14.125 23.5001 14.125Z" fill="#7B79DC"/>
</g>
</g>
<defs>
<filter id="filter0_d_297_4727" x="2" y="6" width="28" height="28" filterUnits="userSpaceOnUse" color-interpolation-filters="sRGB">
<feFlood flood-opacity="0" result="BackgroundImageFix"/>
<feColorMatrix in="SourceAlpha" type="matrix" values="0 0 0 0 0 0 0 0 0 0 0 0 0 0 0 0 0 0 127 0" result="hardAlpha"/>
<feOffset dy="4"/>
<feGaussianBlur stdDeviation="2"/>
<feComposite in2="hardAlpha" operator="out"/>
<feColorMatrix type="matrix" values="0 0 0 0 0 0 0 0 0 0 0 0 0 0 0 0 0 0 0.25 0"/>
<feBlend mode="normal" in2="BackgroundImageFix" result="effect1_dropShadow_297_4727"/>
<feBlend mode="normal" in="SourceGraphic" in2="effect1_dropShadow_297_4727" result="shape"/>
</filter>
<clipPath id="clip0_297_4727">
<rect width="32" height="32" rx="10" fill="white"/>
</clipPath>
</defs>
</svg>
