<svg width="33" height="32" viewBox="0 0 33 32" fill="none" xmlns="http://www.w3.org/2000/svg">
<g clip-path="url(#clip0_297_4156)">
<rect x="0.405762" width="32" height="32" rx="10" fill="#F5F2FF"/>
<g filter="url(#filter0_d_297_4156)">
<path d="M10.5858 24.9166C8.63576 24.9166 6.98576 23.2666 6.98576 21.3166V16.1833C6.94409 13.75 7.84409 11.4583 9.52743 9.74165C11.2108 8.03331 13.4691 7.08331 15.9024 7.08331C20.8691 7.08331 24.9024 11.125 24.9024 16.0833V21.2166C24.9024 23.2 23.2858 24.8166 21.3024 24.8166C19.3524 24.8166 17.7024 23.1666 17.7024 21.2166V18.875C17.7024 17.6666 18.6524 16.7166 19.8608 16.7166C21.0691 16.7166 22.0191 17.6666 22.0191 18.875V21.4C22.0191 21.7416 21.7358 22.025 21.3941 22.025C21.0524 22.025 20.7691 21.7416 20.7691 21.4V18.875C20.7691 18.3083 20.3108 17.9666 19.8608 17.9666C19.2941 17.9666 18.9524 18.425 18.9524 18.875V21.2166C18.9524 22.4916 20.0274 23.5666 21.3024 23.5666C22.5774 23.5666 23.6524 22.4916 23.6524 21.2166V16.0833C23.6524 11.8083 20.1774 8.33331 15.9024 8.33331C13.8108 8.33331 11.8691 9.14165 10.4191 10.6166C8.96909 12.0916 8.19409 14.0666 8.23576 16.1666V21.3166C8.23576 22.5916 9.31076 23.6666 10.5858 23.6666C11.8608 23.6666 12.9358 22.5916 12.9358 21.3166V18.975C12.9358 18.4083 12.4774 18.0666 12.0274 18.0666C11.4608 18.0666 11.1191 18.525 11.1191 18.975V21.4083C11.1191 21.75 10.8358 22.0333 10.4941 22.0333C10.1524 22.0333 9.86909 21.75 9.86909 21.4083V18.975C9.86909 17.7666 10.8191 16.8166 12.0274 16.8166C13.2358 16.8166 14.1858 17.7666 14.1858 18.975V21.3166C14.1858 23.2666 12.5358 24.9166 10.5858 24.9166Z" fill="#7B79DC"/>
</g>
</g>
<defs>
<filter id="filter0_d_297_4156" x="1.94434" y="6" width="28" height="28" filterUnits="userSpaceOnUse" color-interpolation-filters="sRGB">
<feFlood flood-opacity="0" result="BackgroundImageFix"/>
<feColorMatrix in="SourceAlpha" type="matrix" values="0 0 0 0 0 0 0 0 0 0 0 0 0 0 0 0 0 0 127 0" result="hardAlpha"/>
<feOffset dy="4"/>
<feGaussianBlur stdDeviation="2"/>
<feComposite in2="hardAlpha" operator="out"/>
<feColorMatrix type="matrix" values="0 0 0 0 0 0 0 0 0 0 0 0 0 0 0 0 0 0 0.25 0"/>
<feBlend mode="normal" in2="BackgroundImageFix" result="effect1_dropShadow_297_4156"/>
<feBlend mode="normal" in="SourceGraphic" in2="effect1_dropShadow_297_4156" result="shape"/>
</filter>
<clipPath id="clip0_297_4156">
<rect x="0.405762" width="32" height="32" rx="10" fill="white"/>
</clipPath>
</defs>
</svg>
