<svg width="27" height="26" viewBox="0 0 27 26" fill="none" xmlns="http://www.w3.org/2000/svg">
<g filter="url(#filter0_d_301_18900)">
<path d="M8.58576 18.9166C6.63576 18.9166 4.98576 17.2666 4.98576 15.3166V10.1833C4.94409 7.74992 5.84409 5.45825 7.52743 3.74159C9.21076 2.03325 11.4691 1.08325 13.9024 1.08325C18.8691 1.08325 22.9024 5.12492 22.9024 10.0833V15.2166C22.9024 17.1999 21.2858 18.8166 19.3024 18.8166C17.3524 18.8166 15.7024 17.1666 15.7024 15.2166V12.8749C15.7024 11.6666 16.6524 10.7166 17.8608 10.7166C19.0691 10.7166 20.0191 11.6666 20.0191 12.8749V15.3999C20.0191 15.7416 19.7358 16.0249 19.3941 16.0249C19.0524 16.0249 18.7691 15.7416 18.7691 15.3999V12.8749C18.7691 12.3083 18.3108 11.9666 17.8608 11.9666C17.2941 11.9666 16.9524 12.4249 16.9524 12.8749V15.2166C16.9524 16.4916 18.0274 17.5666 19.3024 17.5666C20.5774 17.5666 21.6524 16.4916 21.6524 15.2166V10.0833C21.6524 5.80825 18.1774 2.33325 13.9024 2.33325C11.8108 2.33325 9.86909 3.14159 8.41909 4.61659C6.96909 6.09159 6.19409 8.06658 6.23576 10.1666V15.3166C6.23576 16.5916 7.31076 17.6666 8.58576 17.6666C9.86076 17.6666 10.9358 16.5916 10.9358 15.3166V12.9749C10.9358 12.4083 10.4774 12.0666 10.0274 12.0666C9.46076 12.0666 9.11909 12.5249 9.11909 12.9749V15.4083C9.11909 15.7499 8.83576 16.0333 8.49409 16.0333C8.15243 16.0333 7.86909 15.7499 7.86909 15.4083V12.9749C7.86909 11.7666 8.81909 10.8166 10.0274 10.8166C11.2358 10.8166 12.1858 11.7666 12.1858 12.9749V15.3166C12.1858 17.2666 10.5358 18.9166 8.58576 18.9166Z" fill="#7B79DC"/>
</g>
<defs>
<filter id="filter0_d_301_18900" x="-0.0556641" y="0" width="28" height="28" filterUnits="userSpaceOnUse" color-interpolation-filters="sRGB">
<feFlood flood-opacity="0" result="BackgroundImageFix"/>
<feColorMatrix in="SourceAlpha" type="matrix" values="0 0 0 0 0 0 0 0 0 0 0 0 0 0 0 0 0 0 127 0" result="hardAlpha"/>
<feOffset dy="4"/>
<feGaussianBlur stdDeviation="2"/>
<feComposite in2="hardAlpha" operator="out"/>
<feColorMatrix type="matrix" values="0 0 0 0 0 0 0 0 0 0 0 0 0 0 0 0 0 0 0.25 0"/>
<feBlend mode="normal" in2="BackgroundImageFix" result="effect1_dropShadow_301_18900"/>
<feBlend mode="normal" in="SourceGraphic" in2="effect1_dropShadow_301_18900" result="shape"/>
</filter>
</defs>
</svg>
