<svg width="20" height="20" viewBox="0 0 20 20" fill="none" xmlns="http://www.w3.org/2000/svg">
<path d="M2.09059 12.4179C2.22148 12.3849 2.35853 12.3673 2.49967 12.3673C3.42015 12.3673 4.16634 13.1135 4.16634 14.034V15.7007C4.16634 16.6211 3.42015 17.3673 2.49967 17.3673C1.5792 17.3673 0.833008 16.6211 0.833008 15.7007V14.034C0.833008 13.2547 1.3679 12.6003 2.09059 12.4179ZM2.09059 12.4179L1.99683 11.7928C1.34832 7.46941 4.25083 3.41257 8.55207 2.63053C9.50929 2.45649 10.4901 2.45649 11.4473 2.63053C15.7485 3.41257 18.651 7.46942 18.0025 11.7928L17.9088 12.4179M17.9088 12.4179C17.7779 12.3849 17.6408 12.3673 17.4997 12.3673C16.5792 12.3673 15.833 13.1135 15.833 14.034V15.7007C15.833 16.6211 16.5792 17.3673 17.4997 17.3673C18.4201 17.3673 19.1663 16.6211 19.1663 15.7007V14.034C19.1663 13.2547 18.6314 12.6003 17.9088 12.4179Z" stroke="#7B79DC" stroke-width="1.5"/>
</svg>
