<svg width="24" height="24" viewBox="0 0 24 24" fill="none" xmlns="http://www.w3.org/2000/svg">
<path d="M4.27056 5.56603C3.92178 5.56603 3.62282 5.44147 3.37369 5.19234C3.12456 4.94321 3 4.63595 3 4.27056C3 3.90517 3.12456 3.60621 3.37369 3.37369C3.62282 3.12456 3.92178 3 4.27056 3C4.61934 3 4.9183 3.12456 5.16743 3.37369C5.41656 3.60621 5.54112 3.90517 5.54112 4.27056C5.54112 4.63595 5.41656 4.94321 5.16743 5.19234C4.9183 5.44147 4.61934 5.56603 4.27056 5.56603ZM4.27056 8.13207C4.75213 8.13207 5.14251 8.52246 5.14251 9.00402V20.8626C5.14251 21.3442 4.75213 21.7345 4.27056 21.7345C3.78899 21.7345 3.39861 21.3442 3.39861 20.8626V9.00402C3.39861 8.52246 3.78899 8.13207 4.27056 8.13207Z" fill="#7B79DC"/>
<path d="M15.4693 7.88294C17.097 7.88294 18.4257 8.3895 19.4554 9.40263C20.4851 10.3991 21 11.8524 21 13.7624V20.875C21 21.3497 20.6152 21.7345 20.1405 21.7345C19.6658 21.7345 19.281 21.3497 19.281 20.875V13.9617C19.281 12.4835 18.9073 11.3541 18.1599 10.5735C17.4291 9.79293 16.4243 9.40263 15.1455 9.40263C13.8334 9.40263 12.787 9.81785 12.0064 10.6483C11.2258 11.4787 10.8355 12.6994 10.8355 14.3105V20.8626C10.8355 21.3442 10.4451 21.7345 9.96356 21.7345C9.48199 21.7345 9.09161 21.3442 9.09161 20.8626V9.00402C9.09161 8.52246 9.48199 8.13207 9.96356 8.13207C10.4451 8.13207 10.8355 8.52246 10.8355 9.00402V9.29052C10.8355 9.58693 11.2923 9.71756 11.4905 9.49718C11.8319 9.11753 12.2364 8.80367 12.704 8.55559C13.5178 8.10716 14.4396 7.88294 15.4693 7.88294Z" fill="#7B79DC"/>
</svg>
