<svg width="48" height="48" viewBox="0 0 48 48" fill="none" xmlns="http://www.w3.org/2000/svg">
<circle cx="24" cy="24" r="24" fill="#F5F2FF"/>
<path d="M16.2706 17.566C15.9218 17.566 15.6228 17.4415 15.3737 17.1923C15.1246 16.9432 15 16.636 15 16.2706C15 15.9052 15.1246 15.6062 15.3737 15.3737C15.6228 15.1246 15.9218 15 16.2706 15C16.6193 15 16.9183 15.1246 17.1674 15.3737C17.4166 15.6062 17.5411 15.9052 17.5411 16.2706C17.5411 16.636 17.4166 16.9432 17.1674 17.1923C16.9183 17.4415 16.6193 17.566 16.2706 17.566ZM16.2706 20.1321C16.7521 20.1321 17.1425 20.5225 17.1425 21.004V32.8626C17.1425 33.3442 16.7521 33.7346 16.2706 33.7346C15.789 33.7346 15.3986 33.3442 15.3986 32.8626V21.004C15.3986 20.5225 15.789 20.1321 16.2706 20.1321Z" fill="#7B79DC"/>
<path d="M27.4693 19.8829C29.097 19.8829 30.4257 20.3895 31.4554 21.4026C32.4851 22.3992 33 23.8524 33 25.7624V32.8751C33 33.3497 32.6152 33.7346 32.1405 33.7346C31.6658 33.7346 31.281 33.3497 31.281 32.8751V25.9617C31.281 24.4835 30.9073 23.3542 30.1599 22.5735C29.4292 21.7929 28.4243 21.4026 27.1455 21.4026C25.8334 21.4026 24.787 21.8179 24.0064 22.6483C23.2258 23.4787 22.8355 24.6995 22.8355 26.3105V32.8626C22.8355 33.3442 22.4451 33.7346 21.9636 33.7346C21.482 33.7346 21.0916 33.3442 21.0916 32.8626V21.004C21.0916 20.5225 21.482 20.1321 21.9636 20.1321C22.4451 20.1321 22.8355 20.5225 22.8355 21.004V21.2905C22.8355 21.5869 23.2923 21.7176 23.4905 21.4972C23.832 21.1175 24.2365 20.8037 24.704 20.5556C25.5178 20.1072 26.4396 19.8829 27.4693 19.8829Z" fill="#7B79DC"/>
</svg>
