<svg width="27" height="25" viewBox="0 0 27 25" fill="none" xmlns="http://www.w3.org/2000/svg">
<g filter="url(#filter0_d_301_18905)">
<path d="M18.578 14.9751H9.31133C5.99466 14.9751 4.98633 13.9667 4.98633 10.6501V5.36675C4.98633 2.05008 5.99466 1.04175 9.31133 1.04175H18.5697C21.8863 1.04175 22.8947 2.05008 22.8947 5.36675V10.6417C22.903 13.9667 21.8947 14.9751 18.578 14.9751ZM9.31133 2.29175C6.69466 2.29175 6.23633 2.75008 6.23633 5.36675V10.6417C6.23633 13.2584 6.69466 13.7167 9.31133 13.7167H18.5697C21.1863 13.7167 21.6447 13.2584 21.6447 10.6417V5.36675C21.6447 2.75008 21.1863 2.29175 18.5697 2.29175H9.31133Z" fill="#7B79DC"/>
<path d="M13.9443 18.9584C13.6027 18.9584 13.3193 18.6751 13.3193 18.3334V14.3501C13.3193 14.0084 13.6027 13.7251 13.9443 13.7251C14.286 13.7251 14.5693 14.0084 14.5693 14.3501V18.3334C14.5693 18.6751 14.286 18.9584 13.9443 18.9584Z" fill="#7B79DC"/>
<path d="M22.278 11.4583H5.61133C5.26966 11.4583 4.98633 11.1749 4.98633 10.8333C4.98633 10.4916 5.26966 10.2083 5.61133 10.2083H22.278C22.6197 10.2083 22.903 10.4916 22.903 10.8333C22.903 11.1749 22.6197 11.4583 22.278 11.4583Z" fill="#7B79DC"/>
<path d="M17.6943 18.9583H10.1943C9.85267 18.9583 9.56934 18.6749 9.56934 18.3333C9.56934 17.9916 9.85267 17.7083 10.1943 17.7083H17.6943C18.036 17.7083 18.3193 17.9916 18.3193 18.3333C18.3193 18.6749 18.036 18.9583 17.6943 18.9583Z" fill="#7B79DC"/>
</g>
<defs>
<filter id="filter0_d_301_18905" x="-0.0556641" y="0" width="28" height="28" filterUnits="userSpaceOnUse" color-interpolation-filters="sRGB">
<feFlood flood-opacity="0" result="BackgroundImageFix"/>
<feColorMatrix in="SourceAlpha" type="matrix" values="0 0 0 0 0 0 0 0 0 0 0 0 0 0 0 0 0 0 127 0" result="hardAlpha"/>
<feOffset dy="4"/>
<feGaussianBlur stdDeviation="2"/>
<feComposite in2="hardAlpha" operator="out"/>
<feColorMatrix type="matrix" values="0 0 0 0 0 0 0 0 0 0 0 0 0 0 0 0 0 0 0.25 0"/>
<feBlend mode="normal" in2="BackgroundImageFix" result="effect1_dropShadow_301_18905"/>
<feBlend mode="normal" in="SourceGraphic" in2="effect1_dropShadow_301_18905" result="shape"/>
</filter>
</defs>
</svg>
