<svg width="16" height="16" viewBox="0 0 16 16" fill="none" xmlns="http://www.w3.org/2000/svg">
<path d="M5.71318 10.6799C5.58651 10.6799 5.45984 10.6333 5.35984 10.5333C5.16651 10.3399 5.16651 10.0199 5.35984 9.8266L9.7265 5.45994C9.91984 5.26661 10.2398 5.26661 10.4332 5.45994C10.6265 5.65327 10.6265 5.97327 10.4332 6.16661L6.06651 10.5333C5.96651 10.6333 5.83984 10.6799 5.71318 10.6799Z" fill="#D3304D"/>
<path d="M5.98651 7.4066C5.25984 7.4066 4.6665 6.81328 4.6665 6.08661C4.6665 5.35994 5.25984 4.7666 5.98651 4.7666C6.71318 4.7666 7.3065 5.35994 7.3065 6.08661C7.3065 6.81328 6.71318 7.4066 5.98651 7.4066ZM5.98651 5.77327C5.81318 5.77327 5.6665 5.91328 5.6665 6.09328C5.6665 6.27328 5.80651 6.41327 5.98651 6.41327C6.16651 6.41327 6.3065 6.27328 6.3065 6.09328C6.3065 5.91328 6.15984 5.77327 5.98651 5.77327Z" fill="#D3304D"/>
<path d="M10.3468 11.2267C9.62018 11.2267 9.02686 10.6333 9.02686 9.90666C9.02686 9.17999 9.62018 8.58667 10.3468 8.58667C11.0735 8.58667 11.6669 9.17999 11.6669 9.90666C11.6669 10.6333 11.0735 11.2267 10.3468 11.2267ZM10.3468 9.59334C10.1735 9.59334 10.0269 9.73333 10.0269 9.91333C10.0269 10.0933 10.1668 10.2333 10.3468 10.2333C10.5268 10.2333 10.6668 10.0933 10.6668 9.91333C10.6668 9.73333 10.5268 9.59334 10.3468 9.59334Z" fill="#D3304D"/>
<path d="M8.00016 15.1666C4.04683 15.1666 0.833496 11.9533 0.833496 7.99992C0.833496 4.04659 4.04683 0.833252 8.00016 0.833252C11.9535 0.833252 15.1668 4.04659 15.1668 7.99992C15.1668 11.9533 11.9535 15.1666 8.00016 15.1666ZM8.00016 1.83325C4.60016 1.83325 1.8335 4.59992 1.8335 7.99992C1.8335 11.3999 4.60016 14.1666 8.00016 14.1666C11.4002 14.1666 14.1668 11.3999 14.1668 7.99992C14.1668 4.59992 11.4002 1.83325 8.00016 1.83325Z" fill="#D3304D"/>
</svg>
