<svg width="48" height="48" viewBox="0 0 48 48" fill="none" xmlns="http://www.w3.org/2000/svg">
<path d="M26 11C26 4.924 30.924 0 37 0C43.076 0 48 4.924 48 11C48 17.076 43.076 22 37 22C36.662 22 36.33 21.98 36 21.95V28.598C36 31.046 32.728 31.832 31.594 29.662C29.07 24.838 26.374 18.308 26.062 12.156C26.022 11.774 26 11.39 26 11Z" fill="#DAD4FF"/>
<path d="M0 11C0 4.924 4.924 0 11 0C17.076 0 22 4.924 22 11C22 17.076 17.076 22 11 22C10.662 22 10.33 21.98 10 21.95V28.598C10 31.046 6.728 31.832 5.594 29.662C3.07 24.838 0.374001 18.308 0.0620003 12.156C0.0219994 11.774 0 11.39 0 11Z" fill="#DAD4FF"/>
</svg>
