<svg width="20" height="20" viewBox="0 0 20 20" fill="none" xmlns="http://www.w3.org/2000/svg">
<path d="M14.167 17.7083H5.83366C2.79199 17.7083 1.04199 15.9583 1.04199 12.9166V7.0833C1.04199 4.04163 2.79199 2.29163 5.83366 2.29163H14.167C17.2087 2.29163 18.9587 4.04163 18.9587 7.0833V12.9166C18.9587 15.9583 17.2087 17.7083 14.167 17.7083ZM5.83366 3.54163C3.45033 3.54163 2.29199 4.69996 2.29199 7.0833V12.9166C2.29199 15.3 3.45033 16.4583 5.83366 16.4583H14.167C16.5503 16.4583 17.7087 15.3 17.7087 12.9166V7.0833C17.7087 4.69996 16.5503 3.54163 14.167 3.54163H5.83366Z" fill="#7B79DC"/>
<path d="M9.99949 10.725C9.29949 10.725 8.59116 10.5083 8.04949 10.0666L5.44116 7.98331C5.17449 7.76664 5.12449 7.37497 5.34116 7.10831C5.55783 6.84164 5.9495 6.79164 6.21616 7.00831L8.82449 9.09165C9.45782 9.59998 10.5328 9.59998 11.1662 9.09165L13.7745 7.00831C14.0412 6.79164 14.4412 6.83331 14.6495 7.10831C14.8662 7.37497 14.8245 7.77498 14.5495 7.98331L11.9412 10.0666C11.4078 10.5083 10.6995 10.725 9.99949 10.725Z" fill="#7B79DC"/>
</svg>
