<svg width="40" height="40" viewBox="0 0 40 40" fill="none" xmlns="http://www.w3.org/2000/svg">
<rect width="40" height="40" rx="12" fill="#F5F2FF"/>
<path d="M21.7199 29.6298C20.5399 29.6298 18.8699 28.7998 17.5499 24.8298L16.8299 22.6698L14.6699 21.9498C10.7099 20.6298 9.87988 18.9598 9.87988 17.7798C9.87988 16.6098 10.7099 14.9298 14.6699 13.5998L23.1599 10.7698C25.2799 10.0598 27.0499 10.2698 28.1399 11.3498C29.2299 12.4298 29.4399 14.2098 28.7299 16.3298L25.8999 24.8198C24.5699 28.7998 22.8999 29.6298 21.7199 29.6298ZM15.1399 15.0298C12.3599 15.9598 11.3699 17.0598 11.3699 17.7798C11.3699 18.4998 12.3599 19.5998 15.1399 20.5198L17.6599 21.3598C17.8799 21.4298 18.0599 21.6098 18.1299 21.8298L18.9699 24.3498C19.8899 27.1298 20.9999 28.1198 21.7199 28.1198C22.4399 28.1198 23.5399 27.1298 24.4699 24.3498L27.2999 15.8598C27.8099 14.3198 27.7199 13.0598 27.0699 12.4098C26.4199 11.7598 25.1599 11.6798 23.6299 12.1898L15.1399 15.0298Z" fill="#7B79DC"/>
<path d="M17.6098 22.4C17.4198 22.4 17.2298 22.33 17.0798 22.18C16.7898 21.89 16.7898 21.41 17.0798 21.12L20.6598 17.53C20.9498 17.24 21.4298 17.24 21.7198 17.53C22.0098 17.82 22.0098 18.3 21.7198 18.59L18.1398 22.18C17.9998 22.33 17.7998 22.4 17.6098 22.4Z" fill="#7B79DC"/>
</svg>
