<svg width="24" height="24" viewBox="0 0 24 24" fill="none" xmlns="http://www.w3.org/2000/svg">
<path d="M21.4286 0H2.57143C1.15371 0 0 1.15371 0 2.57143V21.4286C0 22.8463 1.15371 24 2.57143 24H21.4286C22.8463 24 24 22.8463 24 21.4286V2.57143C24 1.15371 22.8463 0 21.4286 0ZM9.17743 12.606L5.74886 16.0346C5.58171 16.2017 5.36229 16.2857 5.14286 16.2857C4.92343 16.2857 4.704 16.2017 4.53686 16.0346C4.20171 15.6994 4.20171 15.1577 4.53686 14.8226L7.35943 12L4.53686 9.17743C4.20171 8.84229 4.20171 8.30057 4.53686 7.96543C4.872 7.63029 5.41371 7.63029 5.74886 7.96543L9.17743 11.394C9.51257 11.7291 9.51257 12.2709 9.17743 12.606ZM18.8571 16.2857H11.1429C10.6689 16.2857 10.2857 15.9017 10.2857 15.4286C10.2857 14.9554 10.6689 14.5714 11.1429 14.5714H18.8571C19.3311 14.5714 19.7143 14.9554 19.7143 15.4286C19.7143 15.9017 19.3311 16.2857 18.8571 16.2857Z" fill="#039696"/>
</svg>
