<svg width="20" height="20" viewBox="0 0 20 20" fill="none" xmlns="http://www.w3.org/2000/svg">
<path fill-rule="evenodd" clip-rule="evenodd" d="M7.53064 7.47782C7.86635 5.42585 8.46713 3.343 8.75958 2.39085C9.16302 2.32563 9.57727 2.29169 9.99984 2.29169C10.4224 2.29169 10.8367 2.32563 11.2401 2.39085C11.5326 3.343 12.1333 5.42585 12.469 7.47782C11.5978 7.61847 10.7467 7.70836 9.99984 7.70836C9.25304 7.70836 8.40192 7.61847 7.53064 7.47782ZM13.6985 7.25071C13.4206 5.56328 12.9756 3.87252 12.6545 2.76084C14.4728 3.42789 15.971 4.76121 16.8519 6.46533C16.03 6.70196 14.8981 7.00359 13.6985 7.25071ZM13.8694 8.49164C15.2095 8.21893 16.4675 7.87935 17.336 7.62653C17.5775 8.3736 17.7082 9.17105 17.7082 10C17.7082 10.4226 17.6742 10.8369 17.609 11.2403C16.8534 11.4724 15.382 11.8998 13.7779 12.2343C13.8879 11.4661 13.9582 10.702 13.9582 10C13.9582 9.51889 13.9252 9.00978 13.8694 8.49164ZM13.5541 13.5542C14.96 13.2823 16.3038 12.9248 17.239 12.6547C16.4608 14.7761 14.7759 16.461 12.6545 17.2392C12.9246 16.304 13.2821 14.9602 13.5541 13.5542ZM12.2341 13.7781C11.8996 15.3822 11.4722 16.8536 11.2401 17.6092C10.8367 17.6744 10.4224 17.7084 9.99984 17.7084C9.57727 17.7084 9.16302 17.6744 8.75958 17.6092C8.52749 16.8536 8.10005 15.3822 7.76562 13.7781C8.53375 13.8881 9.29783 13.9584 9.99984 13.9584C10.7019 13.9584 11.4659 13.8881 12.2341 13.7781ZM6.44564 13.5542C6.71759 14.9602 7.0751 16.304 7.34522 17.2392C5.22378 16.461 3.53887 14.7761 2.76064 12.6547C3.69585 12.9248 5.03971 13.2823 6.44564 13.5542ZM6.2218 12.2343C4.61768 11.8998 3.14624 11.4724 2.39066 11.2403C2.32545 10.8369 2.2915 10.4226 2.2915 10C2.2915 9.17106 2.42215 8.3736 2.66366 7.62653C3.53216 7.87936 4.79022 8.21894 6.13029 8.49164C6.07448 9.00978 6.04151 9.51889 6.04151 10C6.04151 10.702 6.11177 11.4661 6.2218 12.2343ZM6.30122 7.25071C5.10154 7.00359 3.96974 6.70196 3.14774 6.46533C4.02873 4.76121 5.5269 3.42788 7.3452 2.76084C7.0241 3.87252 6.57908 5.56328 6.30122 7.25071ZM7.29151 10C7.29151 9.59936 7.31742 9.16744 7.36349 8.71701C8.2658 8.86154 9.17581 8.95836 9.99984 8.95836C10.8239 8.95836 11.7339 8.86154 12.6362 8.71701C12.6823 9.16744 12.7082 9.59936 12.7082 10C12.7082 10.7485 12.6179 11.6022 12.4765 12.4766C11.602 12.6181 10.7483 12.7084 9.99984 12.7084C9.2514 12.7084 8.39768 12.6181 7.52324 12.4766C7.38181 11.6022 7.29151 10.7485 7.29151 10ZM9.99984 1.04169C9.3651 1.04169 8.74512 1.1078 8.14665 1.23373C5.21431 1.85076 2.81222 3.89994 1.70341 6.6147C1.27649 7.65996 1.0415 8.80333 1.0415 10C1.0415 10.6348 1.10762 11.2547 1.23355 11.8532C1.9618 15.3142 4.68571 18.0381 8.14665 18.7663C8.74512 18.8923 9.3651 18.9584 9.99984 18.9584C10.6346 18.9584 11.2546 18.8923 11.853 18.7663C15.314 18.0381 18.0379 15.3142 18.7661 11.8532C18.8921 11.2547 18.9582 10.6348 18.9582 10C18.9582 8.80427 18.7236 7.66175 18.2973 6.61715C17.1889 3.90117 14.7863 1.85094 11.853 1.23373C11.2546 1.1078 10.6346 1.04169 9.99984 1.04169Z" fill="#7B79DC"/>
</svg>
