<svg width="22" height="22" viewBox="0 0 22 22" fill="none" xmlns="http://www.w3.org/2000/svg">
<path fill-rule="evenodd" clip-rule="evenodd" d="M8.03696 7.97335C8.43981 5.51099 9.16074 3.01158 9.51169 1.86899C9.99581 1.79073 10.4929 1.75 11 1.75C11.5071 1.75 12.0042 1.79073 12.4883 1.86899C12.8393 3.01158 13.5602 5.511 13.963 7.97335C12.9175 8.14214 11.8962 8.25 11 8.25C10.1038 8.25 9.08249 8.14214 8.03696 7.97335ZM15.4383 7.70082C15.1049 5.67591 14.5709 3.647 14.1856 2.31298C16.3675 3.11344 18.1653 4.71342 19.2225 6.75837C18.2361 7.04232 16.878 7.40427 15.4383 7.70082ZM15.6435 9.18993C17.2515 8.86269 18.7612 8.45519 19.8034 8.1518C20.0932 9.04829 20.25 10.0052 20.25 11C20.25 11.5071 20.2093 12.0042 20.131 12.4883C19.2243 12.7668 17.4586 13.2798 15.5337 13.6811C15.6657 12.7593 15.75 11.8424 15.75 11C15.75 10.4226 15.7104 9.8117 15.6435 9.18993ZM15.265 15.265C16.9522 14.9387 18.5648 14.5097 19.687 14.1855C18.7532 16.7313 16.7313 18.7532 14.1856 19.687C14.5097 18.5648 14.9387 16.9522 15.265 15.265ZM13.6811 15.5337C13.2798 17.4586 12.7668 19.2243 12.4883 20.131C12.0042 20.2093 11.5071 20.25 11 20.25C10.4929 20.25 9.99581 20.2093 9.51168 20.131C9.23317 19.2243 8.72025 17.4586 8.31893 15.5337C9.24069 15.6657 10.1576 15.75 11 15.75C11.8424 15.75 12.7593 15.6657 13.6811 15.5337ZM6.73495 15.265C7.0613 16.9522 7.49031 18.5648 7.81445 19.687C5.26873 18.7532 3.24683 16.7313 2.31296 14.1855C3.4352 14.5097 5.04784 14.9387 6.73495 15.265ZM6.46634 13.6811C4.54141 13.2798 2.77568 12.7668 1.86899 12.4883C1.79073 12.0042 1.75 11.5071 1.75 11C1.75 10.0052 1.90677 9.04829 2.19658 8.1518C3.23878 8.4552 4.74846 8.86269 6.35654 9.18993C6.28957 9.8117 6.25 10.4226 6.25 11C6.25 11.8424 6.33431 12.7593 6.46634 13.6811ZM6.56166 7.70082C5.12204 7.40427 3.76388 7.04232 2.77748 6.75837C3.83467 4.71342 5.63247 3.11343 7.81443 2.31298C7.42911 3.647 6.89509 5.67591 6.56166 7.70082ZM7.75 11C7.75 10.5192 7.78109 10.0009 7.83638 9.46039C8.91915 9.63381 10.0112 9.75 11 9.75C11.9888 9.75 13.0809 9.63381 14.1636 9.46038C14.2189 10.0009 14.25 10.5192 14.25 11C14.25 11.8981 14.1416 12.9226 13.9719 13.9719C12.9226 14.1416 11.8981 14.25 11 14.25C10.1019 14.25 9.0774 14.1416 8.02808 13.9719C7.85836 12.9226 7.75 11.8981 7.75 11ZM11 0.25C10.2383 0.25 9.49434 0.329336 8.77616 0.480454C5.25736 1.22088 2.37486 3.6799 1.04429 6.93761C0.53198 8.19193 0.25 9.56397 0.25 11C0.25 11.7617 0.329336 12.5057 0.480454 13.2238C1.35435 17.377 4.62304 20.6456 8.77616 21.5195C9.49434 21.6707 10.2383 21.75 11 21.75C11.7617 21.75 12.5057 21.6707 13.2238 21.5195C17.377 20.6456 20.6456 17.377 21.5195 13.2238C21.6707 12.5057 21.75 11.7617 21.75 11C21.75 9.56509 21.4685 8.19407 20.9569 6.94055C19.6269 3.68138 16.7437 1.22111 13.2238 0.480455C12.5057 0.329336 11.7617 0.25 11 0.25Z" fill="#F5F2FF"/>
</svg>
