<svg width="24" height="24" viewBox="0 0 24 24" fill="none" xmlns="http://www.w3.org/2000/svg">
<path d="M4.48283 20.7155L4.92367 20.1088L4.48283 20.7155ZM3.28449 19.5172L3.89126 19.0763L3.28449 19.5172ZM20.7155 19.5172L20.1088 19.0763L20.7155 19.5172ZM19.5172 20.7155L19.0763 20.1088L19.5172 20.7155ZM19.5172 3.28449L19.0763 3.89126L19.5172 3.28449ZM20.7155 4.48283L20.1088 4.92367L20.7155 4.48283ZM4.48283 3.28449L4.92367 3.89126L4.48283 3.28449ZM3.28449 4.48283L3.89126 4.92367L3.28449 4.48283ZM12 21C9.9522 21 8.47658 20.999 7.33282 20.8751C6.2031 20.7527 5.48644 20.5176 4.92367 20.1088L4.04199 21.3223C4.90308 21.9479 5.9139 22.2301 7.17125 22.3663C8.41456 22.501 9.98561 22.5 12 22.5V21ZM1.5 12C1.5 14.0144 1.49897 15.5855 1.63367 16.8288C1.7699 18.0861 2.05211 19.0969 2.67773 19.958L3.89126 19.0763C3.48238 18.5136 3.24735 17.7969 3.12495 16.6672C3.00103 15.5234 3 14.0478 3 12H1.5ZM4.92367 20.1088C4.5275 19.8209 4.17909 19.4725 3.89126 19.0763L2.67773 19.958C3.05809 20.4815 3.51847 20.9419 4.04199 21.3223L4.92367 20.1088ZM21 12C21 14.0478 20.999 15.5234 20.8751 16.6672C20.7527 17.7969 20.5176 18.5136 20.1088 19.0763L21.3223 19.958C21.9479 19.0969 22.2301 18.0861 22.3663 16.8288C22.501 15.5855 22.5 14.0144 22.5 12H21ZM12 22.5C14.0144 22.5 15.5855 22.501 16.8288 22.3663C18.0861 22.2301 19.0969 21.9479 19.958 21.3223L19.0763 20.1088C18.5136 20.5176 17.7969 20.7527 16.6672 20.8751C15.5234 20.999 14.0478 21 12 21V22.5ZM20.1088 19.0763C19.8209 19.4725 19.4725 19.8209 19.0763 20.1088L19.958 21.3223C20.4815 20.9419 20.9419 20.4815 21.3223 19.958L20.1088 19.0763ZM12 3C14.0478 3 15.5234 3.00103 16.6672 3.12495C17.7969 3.24735 18.5136 3.48238 19.0763 3.89126L19.958 2.67773C19.0969 2.05211 18.0861 1.7699 16.8288 1.63367C15.5855 1.49897 14.0144 1.5 12 1.5V3ZM22.5 12C22.5 9.98561 22.501 8.41456 22.3663 7.17125C22.2301 5.9139 21.9479 4.90308 21.3223 4.04199L20.1088 4.92367C20.5176 5.48644 20.7527 6.2031 20.8751 7.33282C20.999 8.47658 21 9.9522 21 12H22.5ZM19.0763 3.89126C19.4725 4.17909 19.8209 4.5275 20.1088 4.92367L21.3223 4.04199C20.9419 3.51847 20.4815 3.05809 19.958 2.67773L19.0763 3.89126ZM12 1.5C9.98561 1.5 8.41456 1.49897 7.17125 1.63367C5.9139 1.7699 4.90308 2.05211 4.04199 2.67773L4.92367 3.89126C5.48644 3.48238 6.2031 3.24735 7.33282 3.12495C8.47658 3.00103 9.9522 3 12 3V1.5ZM3 12C3 9.9522 3.00103 8.47658 3.12495 7.33282C3.24735 6.2031 3.48238 5.48644 3.89126 4.92367L2.67773 4.04199C2.05211 4.90308 1.7699 5.9139 1.63367 7.17125C1.49897 8.41456 1.5 9.98561 1.5 12H3ZM4.04199 2.67773C3.51847 3.05809 3.05809 3.51847 2.67773 4.04199L3.89126 4.92367C4.17909 4.5275 4.5275 4.17909 4.92367 3.89126L4.04199 2.67773ZM8 12C8 14.2091 9.79087 16 12 16V14.5C10.6193 14.5 9.50001 13.3807 9.50001 12H8ZM12 16C14.2091 16 16 14.2091 16 12H14.5C14.5 13.3807 13.3807 14.5 12 14.5V16ZM16 12C16 9.79087 14.2091 8 12 8V9.50001C13.3807 9.50001 14.5 10.6193 14.5 12H16ZM12 8C9.79087 8 8 9.79087 8 12H9.50001C9.50001 10.6193 10.6193 9.50001 12 9.50001V8Z" fill="#F5F2FF"/>
<path d="M16.3359 6.58333C16.3359 7.18164 16.821 7.66667 17.4193 7.66667C18.0176 7.66667 18.5026 7.18164 18.5026 6.58333C18.5026 5.98503 18.0176 5.5 17.4193 5.5C16.821 5.5 16.3359 5.98503 16.3359 6.58333Z" fill="#F5F2FF"/>
</svg>
