<svg width="106" height="24" viewBox="0 0 106 24" fill="none" xmlns="http://www.w3.org/2000/svg">
<path d="M72.1869 13.9544C72.1869 14.1075 72.1774 14.2607 72.1582 14.4138C72.1582 14.5478 72.1487 14.6914 72.1295 14.8445C72.0338 15.6293 71.8424 16.3854 71.5553 17.1128C71.2681 17.8402 70.8949 18.5197 70.4355 19.1514C69.9952 19.7831 69.4688 20.3574 68.8563 20.8742C68.2629 21.3719 67.612 21.793 66.9038 22.1375C65.4299 22.8266 63.8794 23.1138 62.2523 22.9989C60.6253 22.8841 59.1322 22.3672 57.7731 21.4484C56.4715 20.5679 55.457 19.429 54.7296 18.0316C54.0213 16.6151 53.6863 15.1221 53.7246 13.5524C53.7629 12.5762 53.9448 11.6287 54.2702 10.7099C54.5956 9.79105 55.055 8.93924 55.6484 8.15443C56.3949 7.17819 57.3041 6.39338 58.3761 5.79998C59.448 5.18744 60.587 4.8046 61.7929 4.65147C62.9988 4.49833 64.1952 4.58447 65.382 4.90988C66.5688 5.23529 67.6407 5.77127 68.5978 6.5178H68.6265V1.78019C68.6265 1.2825 68.7988 0.861383 69.1434 0.51683C69.4879 0.172277 69.9091 0 70.4067 0C70.9044 0 71.3256 0.172277 71.6701 0.51683C72.0147 0.861383 72.1869 1.2825 72.1869 1.78019V13.9544ZM67.2196 17.5435C67.8896 16.7587 68.3203 15.8686 68.5117 14.8732C68.7223 13.8587 68.6553 12.8633 68.3107 11.8871C68.0427 11.1406 67.6312 10.4802 67.0761 9.9059C66.5401 9.33165 65.918 8.89139 65.2097 8.58512C64.4823 8.25971 63.7167 8.097 62.9127 8.097C62.1279 8.097 61.3814 8.25971 60.6731 8.58512C60.3668 8.73825 60.0701 8.90096 59.783 9.07323C59.515 9.24551 59.2566 9.4465 59.0078 9.6762C58.5101 10.1739 58.1081 10.7481 57.8018 11.399C57.4956 12.0306 57.3233 12.7102 57.285 13.4376C57.2467 14.0693 57.3041 14.7009 57.4573 15.3326C57.6296 15.9452 57.9071 16.5098 58.29 17.0267C58.6728 17.5818 59.1322 18.0603 59.6682 18.4623C60.2233 18.8451 60.8167 19.1227 61.4484 19.295C62.0609 19.4481 62.6926 19.5055 63.3434 19.4673C63.9942 19.429 64.6163 19.2758 65.2097 19.0079C65.0566 19.0844 64.9035 19.161 64.7503 19.2376C64.5972 19.295 64.4345 19.3524 64.2622 19.4098C64.6259 19.2758 64.9992 19.1227 65.382 18.9504C66.1094 18.5867 66.7219 18.1178 67.2196 17.5435Z" fill="#7B79DC"/>
<path d="M9.13066 8.38573C9.13837 8.38573 9.14607 8.38568 9.15374 8.3856C9.16142 8.38568 9.16911 8.38573 9.17682 8.38573H9.32039C10.0669 8.42401 10.7752 8.59629 11.4451 8.90256C12.096 9.20883 12.6702 9.62038 13.1679 10.1372C13.6464 10.6349 14.0293 11.2187 14.3164 11.8887C14.5844 12.5586 14.7184 13.2765 14.7184 14.0421V21.5075C14.7184 22.0051 14.9002 22.4263 15.2639 22.7708C15.6085 23.1154 16.0296 23.2876 16.5273 23.2876C17.025 23.2876 17.4461 23.1154 17.7907 22.7708C18.1352 22.4263 18.3075 22.0051 18.3075 21.5075V14.0421C18.3075 12.7788 18.0778 11.6016 17.6184 10.5105C17.1398 9.40024 16.4986 8.43358 15.6946 7.61048C14.8907 6.76824 13.9431 6.09828 12.8521 5.60059C11.761 5.1029 10.5933 4.83492 9.3491 4.79663H8.95838C7.71416 4.83492 6.54651 5.1029 5.45543 5.60059C4.36434 6.09828 3.41682 6.76824 2.61286 7.61048C1.8089 8.43358 1.16765 9.40024 0.689107 10.5105C0.229703 11.6016 0 12.7788 0 14.0421V21.5075C0 22.0051 0.172277 22.4263 0.51683 22.7708C0.861383 23.1154 1.2825 23.2876 1.78019 23.2876C2.27788 23.2876 2.699 23.1154 3.04355 22.7708C3.40725 22.4263 3.5891 22.0051 3.5891 21.5075V14.0421C3.5891 13.2765 3.72309 12.5586 3.99107 11.8887C4.2782 11.2187 4.66104 10.6349 5.13959 10.1372C5.63727 9.62038 6.21153 9.20883 6.86235 8.90256C7.53232 8.59629 8.24057 8.42401 8.9871 8.38573H9.13066Z" fill="#7B79DC"/>
<path d="M10.957 14.7636C10.957 15.7547 10.1536 16.5581 9.16247 16.5581C8.17137 16.5581 7.36792 15.7547 7.36792 14.7636C7.36792 13.7725 8.17137 12.969 9.16247 12.969C10.1536 12.969 10.957 13.7725 10.957 14.7636Z" fill="#7B79DC"/>
<path d="M34.6063 17.6943C35.4786 18.1105 35.8606 19.1686 35.2867 19.9464C34.4288 21.1092 33.3034 22.0601 31.9957 22.7126C30.1626 23.6273 28.0764 23.9031 26.0686 23.4962C24.0608 23.0893 22.2466 22.023 20.9143 20.4668C19.582 18.9106 18.808 16.9537 18.7153 14.9072C18.6226 12.8607 19.2166 10.8419 20.4028 9.17164C21.589 7.50139 23.2994 6.27549 25.2622 5.68875C27.225 5.10202 29.3276 5.18811 31.2358 5.93335C32.5972 6.46499 33.8039 7.31031 34.7634 8.39077C35.4052 9.11348 35.1204 10.2018 34.2893 10.6952C33.4581 11.1885 32.3972 10.8862 31.6753 10.2435C31.1746 9.79778 30.5956 9.44099 29.9625 9.19378C28.7813 8.73246 27.4797 8.67916 26.2647 9.04237C25.0497 9.40557 23.9909 10.1644 23.2566 11.1984C22.5223 12.2323 22.1546 13.482 22.212 14.7489C22.2693 16.0157 22.7485 17.2271 23.5732 18.1904C24.398 19.1537 25.521 19.8138 26.7639 20.0657C28.0068 20.3176 29.2982 20.1468 30.4329 19.5806C31.041 19.2772 31.5854 18.8696 32.0438 18.3804C32.7047 17.6751 33.7339 17.2781 34.6063 17.6943Z" fill="#7B79DC"/>
<path fill-rule="evenodd" clip-rule="evenodd" d="M49.6882 20.9007C48.1179 22.1536 46.1277 22.9025 43.9626 22.9025C38.8884 22.9025 34.7749 18.789 34.7749 13.7148C34.7749 8.64057 38.8884 4.5271 43.9626 4.5271C49.0368 4.5271 53.1503 8.64057 53.1503 13.7148C53.1503 13.9082 53.1443 14.1002 53.1325 14.2906V21.2691C53.1325 22.2202 52.3615 22.9912 51.4104 22.9912C50.4593 22.9912 49.6882 22.2202 49.6882 21.2691V20.9007ZM38.2751 13.7148C38.2751 16.8559 40.8215 19.4022 43.9626 19.4022C47.1037 19.4022 49.65 16.8559 49.65 13.7148C49.65 10.5737 47.1037 8.02734 43.9626 8.02734C40.8215 8.02734 38.2751 10.5737 38.2751 13.7148Z" fill="#7B79DC"/>
<path fill-rule="evenodd" clip-rule="evenodd" d="M86.7264 17.196L86.7294 17.1934C86.7873 17.1443 86.8471 17.0974 86.9084 17.0531C87.5063 16.6215 88.2571 16.4332 88.9363 16.723C89.0429 16.7685 89.1428 16.8235 89.2353 16.8865C89.654 17.1718 89.9182 17.6206 89.9471 18.0881C89.9651 18.3779 89.8926 18.6749 89.7105 18.9447C88.7538 20.3618 87.4135 21.4941 85.8303 22.1985C83.71 23.1418 81.3113 23.2479 79.1161 22.4954C76.9208 21.7428 75.0917 20.1875 73.9961 18.1417C72.9005 16.096 72.6196 13.7114 73.2099 11.4671C73.8002 9.22278 75.218 7.28498 77.1783 6.04301C79.1386 4.80103 81.4963 4.34689 83.7778 4.77182C86.0592 5.19675 88.0953 6.46928 89.477 8.33374C90.5088 9.72593 91.1186 11.3712 91.2542 13.0755C91.2596 13.143 91.2602 13.2093 91.2565 13.274C91.2565 13.2747 91.2565 13.2753 91.2565 13.276C91.2565 14.2295 90.4835 15.0026 89.5299 15.0026H76.5357C76.6465 15.517 76.8291 16.0177 77.0817 16.4892C77.7599 17.7556 78.8922 18.7184 80.2511 19.1843C81.61 19.6501 83.0949 19.5844 84.4074 19.0005C85.1812 18.6562 85.8613 18.1468 86.4048 17.5158C86.4886 17.4186 86.579 17.3265 86.6751 17.2408C86.692 17.2256 86.7091 17.2107 86.7264 17.196ZM76.874 11.5494C77.3245 10.506 78.0805 9.61501 79.0516 8.99979C80.2651 8.23097 81.7246 7.94984 83.1368 8.21289C84.5491 8.47593 85.8095 9.26366 86.6648 10.4178C86.9269 10.7714 87.145 11.1514 87.3168 11.5494H76.874Z" fill="#7B79DC"/>
<path d="M88.1158 9.25061C87.2871 9.7212 85.4533 7.95629 85.939 8.75909L94.0576 22.1767C94.3495 22.659 94.8505 22.9487 95.3838 23.0012C96.0732 23.1109 96.7922 22.8091 97.1667 22.1902L105.285 8.77263C105.771 7.96983 105.493 6.93754 104.664 6.46695C103.836 5.99636 102.77 6.26568 102.284 7.06848L95.6162 18.0889L89.9355 9.11329C89.4497 8.31049 88.9445 8.78003 88.1158 9.25061Z" fill="#7B79DC"/>
</svg>
