<svg width="120" height="120" viewBox="0 0 120 120" fill="none" xmlns="http://www.w3.org/2000/svg">
<g filter="url(#filter0_d_97_837)">
<rect x="24" y="24" width="72" height="72" rx="24" fill="white"/>
<g filter="url(#filter1_d_97_837)">
<path d="M60.0001 71.0834C59.0667 71.0834 58.1334 71.0134 57.2467 70.8501C52.3001 70.1267 47.7967 67.2801 44.9501 63.0567C42.9667 60.0701 41.9167 56.5934 41.9167 53.0001C41.9167 43.0367 50.0367 34.9167 60.0001 34.9167C69.9634 34.9167 78.0834 43.0367 78.0834 53.0001C78.0834 56.5934 77.0334 60.0701 75.0501 63.0567C72.1801 67.3034 67.6767 70.1268 62.6834 70.8734C61.8667 71.0134 60.9334 71.0834 60.0001 71.0834ZM60.0001 38.4167C51.9501 38.4167 45.4167 44.9501 45.4167 53.0001C45.4167 55.9167 46.2567 58.7167 47.8434 61.0968C50.1534 64.5034 53.7701 66.7901 57.7834 67.3734C59.2767 67.6301 60.7467 67.6301 62.1234 67.3734C66.2067 66.7901 69.8234 64.4801 72.1334 61.0734C73.7201 58.6934 74.5601 55.8934 74.5601 52.9767C74.5834 44.9501 68.0501 38.4167 60.0001 38.4167Z" fill="#7B79DC"/>
<path d="M47.0963 84.7098C46.7697 84.7098 46.4663 84.6632 46.1397 84.5932C44.623 84.2432 43.4563 83.0765 43.1063 81.5598L42.2897 78.1298C42.243 77.9198 42.0797 77.7565 41.8463 77.6865L37.9963 76.7765C36.5497 76.4265 35.4063 75.3532 35.0097 73.9298C34.613 72.5065 35.0097 70.9665 36.0597 69.9165L45.1597 60.8165C45.533 60.4432 46.0463 60.2565 46.5597 60.3032C47.073 60.3499 47.5397 60.6298 47.843 61.0732C50.153 64.4798 53.7697 66.7899 57.8063 67.3732C59.2997 67.6299 60.7697 67.6299 62.1463 67.3732C66.2297 66.7899 69.8463 64.4798 72.1563 61.0732C72.4363 60.6298 72.9263 60.3499 73.4397 60.3032C73.953 60.2565 74.4663 60.4432 74.8397 60.8165L83.9397 69.9165C84.9897 70.9665 85.3863 72.5065 84.9897 73.9298C84.593 75.3532 83.4263 76.4499 82.003 76.7765L78.153 77.6865C77.943 77.7331 77.7797 77.8965 77.7097 78.1298L76.893 81.5598C76.543 83.0765 75.3763 84.2432 73.8597 84.5932C72.343 84.9665 70.7797 84.4298 69.7997 83.2398L59.9997 71.9699L50.1997 83.2632C49.4063 84.1965 48.2863 84.7098 47.0963 84.7098ZM46.2097 64.7365L38.533 72.4132C38.323 72.6232 38.3463 72.8565 38.393 72.9965C38.4163 73.1132 38.533 73.3465 38.813 73.3932L42.663 74.3032C44.1797 74.6532 45.3463 75.8198 45.6963 77.3365L46.513 80.7665C46.583 81.0698 46.8163 81.1632 46.9563 81.2098C47.0963 81.2332 47.3297 81.2565 47.5397 81.0232L56.4763 70.7332C52.5097 69.9632 48.8697 67.8398 46.2097 64.7365ZM63.523 70.7098L72.4597 80.9765C72.6697 81.2332 72.9263 81.2331 73.0663 81.1865C73.2063 81.1631 73.4163 81.0465 73.5097 80.7432L74.3263 77.3132C74.6763 75.7965 75.843 74.6298 77.3597 74.2798L81.2097 73.3699C81.4897 73.2999 81.6063 73.0898 81.6297 72.9732C81.6763 72.8565 81.6996 72.5998 81.4897 72.3898L73.813 64.7132C71.1297 67.8165 67.513 69.9398 63.523 70.7098Z" fill="#7B79DC"/>
<path d="M64.4102 62.0768C63.8036 62.0768 63.0802 61.9134 62.2169 61.4001L60.0002 60.0701L57.7836 61.3767C55.7536 62.5901 54.4236 61.8901 53.9336 61.5401C53.4436 61.1901 52.3936 60.1401 52.9302 57.8301L53.4902 55.4268L51.6236 53.7001C50.5969 52.6734 50.2236 51.4368 50.5736 50.3168C50.9236 49.1968 51.9502 48.4034 53.3969 48.1701L55.8936 47.7501L57.0836 45.1368C57.7602 43.8068 58.8102 43.0601 60.0002 43.0601C61.1902 43.0601 62.2636 43.8301 62.9169 45.1601L64.2936 47.9134L66.6036 48.1934C68.0269 48.4268 69.0536 49.22 69.4269 50.34C69.7769 51.46 69.4036 52.6967 68.3769 53.7234L66.4402 55.6601L67.0469 57.8301C67.5836 60.1401 66.5336 61.1901 66.0436 61.5401C65.7869 61.7501 65.2269 62.0768 64.4102 62.0768ZM54.4236 51.5768L56.0336 53.1867C56.7802 53.9334 57.1536 55.1934 56.9202 56.2201L56.4769 58.0867L58.3436 56.9901C59.3469 56.4067 60.7002 56.4067 61.6802 56.9901L63.5469 58.0867L63.1269 56.2201C62.8936 55.1701 63.2436 53.9334 63.9902 53.1867L65.6002 51.5768L63.5702 51.2267C62.5902 51.0634 61.6102 50.3401 61.1669 49.4534L60.0002 47.1667L58.8336 49.5001C58.4136 50.3634 57.4336 51.1101 56.4536 51.2734L54.4236 51.5768Z" fill="#7B79DC"/>
</g>
</g>
<defs>
<filter id="filter0_d_97_837" x="0" y="0" width="120" height="120" filterUnits="userSpaceOnUse" color-interpolation-filters="sRGB">
<feFlood flood-opacity="0" result="BackgroundImageFix"/>
<feColorMatrix in="SourceAlpha" type="matrix" values="0 0 0 0 0 0 0 0 0 0 0 0 0 0 0 0 0 0 127 0" result="hardAlpha"/>
<feOffset/>
<feGaussianBlur stdDeviation="12"/>
<feComposite in2="hardAlpha" operator="out"/>
<feColorMatrix type="matrix" values="0 0 0 0 0 0 0 0 0 0 0 0 0 0 0 0 0 0 0.12 0"/>
<feBlend mode="normal" in2="BackgroundImageFix" result="effect1_dropShadow_97_837"/>
<feBlend mode="normal" in="SourceGraphic" in2="effect1_dropShadow_97_837" result="shape"/>
</filter>
<filter id="filter1_d_97_837" x="28" y="32" width="64" height="64" filterUnits="userSpaceOnUse" color-interpolation-filters="sRGB">
<feFlood flood-opacity="0" result="BackgroundImageFix"/>
<feColorMatrix in="SourceAlpha" type="matrix" values="0 0 0 0 0 0 0 0 0 0 0 0 0 0 0 0 0 0 127 0" result="hardAlpha"/>
<feOffset dy="4"/>
<feGaussianBlur stdDeviation="2"/>
<feComposite in2="hardAlpha" operator="out"/>
<feColorMatrix type="matrix" values="0 0 0 0 0 0 0 0 0 0 0 0 0 0 0 0 0 0 0.25 0"/>
<feBlend mode="normal" in2="BackgroundImageFix" result="effect1_dropShadow_97_837"/>
<feBlend mode="normal" in="SourceGraphic" in2="effect1_dropShadow_97_837" result="shape"/>
</filter>
</defs>
</svg>
