<svg width="96" height="96" viewBox="0 0 96 96" fill="none" xmlns="http://www.w3.org/2000/svg">
<g filter="url(#filter0_d_297_3767)">
<rect x="24" y="24" width="48" height="48" rx="16" fill="white"/>
<g filter="url(#filter1_d_297_3767)">
<path d="M53.5003 62.3334H42.8336C36.6736 62.3334 35.527 59.4668 35.2336 56.6801L34.2336 46.0001C34.087 44.6001 34.047 42.5334 35.4336 40.9868C36.6336 39.6534 38.6203 39.0134 41.5003 39.0134H54.8336C57.727 39.0134 59.7136 39.6668 60.9003 40.9868C62.287 42.5334 62.247 44.6001 62.1003 46.0134L61.1003 56.6668C60.807 59.4668 59.6603 62.3334 53.5003 62.3334ZM41.5003 41.0001C39.247 41.0001 37.7003 41.4401 36.9136 42.3201C36.2603 43.0401 36.047 44.1468 36.2203 45.8001L37.2203 56.4801C37.447 58.5868 38.0203 60.3334 42.8336 60.3334H53.5003C58.3003 60.3334 58.887 58.5868 59.1136 56.4668L60.1136 45.8134C60.287 44.1468 60.0736 43.0401 59.4203 42.3201C58.6336 41.4401 57.087 41.0001 54.8336 41.0001H41.5003Z" fill="#7B79DC"/>
<path d="M53.5002 41.0001C52.9535 41.0001 52.5002 40.5467 52.5002 40.0001V38.9334C52.5002 36.5601 52.5002 35.6667 49.2335 35.6667H47.1002C43.8335 35.6667 43.8335 36.5601 43.8335 38.9334V40.0001C43.8335 40.5467 43.3802 41.0001 42.8335 41.0001C42.2868 41.0001 41.8335 40.5467 41.8335 40.0001V38.9334C41.8335 36.5867 41.8335 33.6667 47.1002 33.6667H49.2335C54.5002 33.6667 54.5002 36.5867 54.5002 38.9334V40.0001C54.5002 40.5467 54.0468 41.0001 53.5002 41.0001Z" fill="#7B79DC"/>
<path d="M48.1672 54.3333C44.5005 54.3333 44.5005 52.0667 44.5005 50.7067V49.3333C44.5005 47.4533 44.9538 47 46.8338 47H49.5005C51.3805 47 51.8338 47.4533 51.8338 49.3333V50.6667C51.8338 52.0533 51.8338 54.3333 48.1672 54.3333ZM46.5005 49C46.5005 49.1067 46.5005 49.2267 46.5005 49.3333V50.7067C46.5005 52.08 46.5005 52.3333 48.1672 52.3333C49.8338 52.3333 49.8338 52.12 49.8338 50.6933V49.3333C49.8338 49.2267 49.8338 49.1067 49.8338 49C49.7272 49 49.6072 49 49.5005 49H46.8338C46.7272 49 46.6072 49 46.5005 49Z" fill="#7B79DC"/>
<path d="M50.8335 51.6932C50.3402 51.6932 49.9002 51.3199 49.8468 50.8132C49.7802 50.2666 50.1668 49.7599 50.7135 49.6932C54.2335 49.2532 57.6068 47.9199 60.4468 45.8532C60.8868 45.5199 61.5135 45.6266 61.8468 46.0799C62.1668 46.5199 62.0735 47.1466 61.6202 47.4799C58.5002 49.7466 54.8202 51.1999 50.9535 51.6932C50.9135 51.6932 50.8735 51.6932 50.8335 51.6932Z" fill="#7B79DC"/>
<path d="M45.5003 51.7066C45.4603 51.7066 45.4203 51.7066 45.3803 51.7066C41.727 51.2933 38.167 49.96 35.087 47.8533C34.6336 47.5466 34.5136 46.92 34.8203 46.4666C35.127 46.0133 35.7536 45.8933 36.207 46.2C39.0203 48.12 42.2603 49.3333 45.5936 49.72C46.1403 49.7866 46.5403 50.28 46.4736 50.8266C46.4336 51.3333 46.007 51.7066 45.5003 51.7066Z" fill="#7B79DC"/>
</g>
</g>
<defs>
<filter id="filter0_d_297_3767" x="0" y="0" width="96" height="96" filterUnits="userSpaceOnUse" color-interpolation-filters="sRGB">
<feFlood flood-opacity="0" result="BackgroundImageFix"/>
<feColorMatrix in="SourceAlpha" type="matrix" values="0 0 0 0 0 0 0 0 0 0 0 0 0 0 0 0 0 0 127 0" result="hardAlpha"/>
<feOffset/>
<feGaussianBlur stdDeviation="12"/>
<feComposite in2="hardAlpha" operator="out"/>
<feColorMatrix type="matrix" values="0 0 0 0 0 0 0 0 0 0 0 0 0 0 0 0 0 0 0.12 0"/>
<feBlend mode="normal" in2="BackgroundImageFix" result="effect1_dropShadow_297_3767"/>
<feBlend mode="normal" in="SourceGraphic" in2="effect1_dropShadow_297_3767" result="shape"/>
</filter>
<filter id="filter1_d_297_3767" x="28.167" y="32" width="40" height="40" filterUnits="userSpaceOnUse" color-interpolation-filters="sRGB">
<feFlood flood-opacity="0" result="BackgroundImageFix"/>
<feColorMatrix in="SourceAlpha" type="matrix" values="0 0 0 0 0 0 0 0 0 0 0 0 0 0 0 0 0 0 127 0" result="hardAlpha"/>
<feOffset dy="4"/>
<feGaussianBlur stdDeviation="2"/>
<feComposite in2="hardAlpha" operator="out"/>
<feColorMatrix type="matrix" values="0 0 0 0 0 0 0 0 0 0 0 0 0 0 0 0 0 0 0.25 0"/>
<feBlend mode="normal" in2="BackgroundImageFix" result="effect1_dropShadow_297_3767"/>
<feBlend mode="normal" in="SourceGraphic" in2="effect1_dropShadow_297_3767" result="shape"/>
</filter>
</defs>
</svg>
