<svg width="16" height="16" viewBox="0 0 16 16" fill="none" xmlns="http://www.w3.org/2000/svg">
<path d="M2.3335 12.4999C2.06016 12.4999 1.8335 12.2733 1.8335 11.9999V4.66658C1.8335 1.72659 2.72683 0.833252 5.66683 0.833252H10.3335C13.2735 0.833252 14.1668 1.72659 14.1668 4.66658V11.3333C14.1668 11.4399 14.1668 11.5399 14.1602 11.6466C14.1402 11.9199 13.8935 12.1333 13.6268 12.1133C13.3535 12.0933 13.1402 11.8533 13.1602 11.5799C13.1668 11.4999 13.1668 11.4133 13.1668 11.3333V4.66658C13.1668 2.28659 12.7202 1.83325 10.3335 1.83325H5.66683C3.28016 1.83325 2.8335 2.28659 2.8335 4.66658V11.9999C2.8335 12.2733 2.60683 12.4999 2.3335 12.4999Z" fill="#7B79DC"/>
<path d="M11.3335 15.1667H4.66683C3.10683 15.1667 1.8335 13.8933 1.8335 12.3333V11.9C1.8335 10.5733 2.9135 9.5 4.2335 9.5H13.6668C13.9402 9.5 14.1668 9.72667 14.1668 10V12.3333C14.1668 13.8933 12.8935 15.1667 11.3335 15.1667ZM4.2335 10.5C3.46016 10.5 2.8335 11.1267 2.8335 11.9V12.3333C2.8335 13.3467 3.6535 14.1667 4.66683 14.1667H11.3335C12.3468 14.1667 13.1668 13.3467 13.1668 12.3333V10.5H4.2335Z" fill="#7B79DC"/>
<path d="M10.6668 5.16675H5.3335C5.06016 5.16675 4.8335 4.94008 4.8335 4.66675C4.8335 4.39341 5.06016 4.16675 5.3335 4.16675H10.6668C10.9402 4.16675 11.1668 4.39341 11.1668 4.66675C11.1668 4.94008 10.9402 5.16675 10.6668 5.16675Z" fill="#7B79DC"/>
<path d="M8.66683 7.5H5.3335C5.06016 7.5 4.8335 7.27333 4.8335 7C4.8335 6.72667 5.06016 6.5 5.3335 6.5H8.66683C8.94016 6.5 9.16683 6.72667 9.16683 7C9.16683 7.27333 8.94016 7.5 8.66683 7.5Z" fill="#7B79DC"/>
</svg>
