<svg width="24" height="24" viewBox="0 0 24 24" fill="none" xmlns="http://www.w3.org/2000/svg">
<path d="M15.75 18.3732C15.75 19.3734 14.25 19.3734 14.25 18.3732C14.25 17.373 15.75 17.373 15.75 18.3732Z" fill="#129CFF"/>
<path d="M21.8016 10.7156L24.0001 9.24298L22.5441 5.72789L19.9482 6.24157C19.4223 5.54885 18.8091 4.94235 18.1322 4.42867L18.646 1.83027L15.1304 0.374512L13.4991 2.62423H11.999V7.49851H13.1241C13.3312 7.49851 13.4991 7.66631 13.4991 7.87347C13.4991 8.08063 13.3312 8.24842 13.1241 8.24842H11.999V8.99833H13.7185L14.6241 8.09283V7.07014C13.9791 6.90235 13.4991 6.32024 13.4991 5.62377C13.4991 4.797 14.1722 4.12395 14.9991 4.12395C15.826 4.12395 16.4992 4.797 16.4992 5.62377C16.4992 6.32024 16.0191 6.90236 15.3741 7.07014V8.24845C15.3741 8.34781 15.3347 8.44342 15.2644 8.51373L14.2491 9.52893V10.1232H15.5935L16.711 9.00589C16.5798 8.78279 16.4982 8.52595 16.4982 8.24849C16.4982 7.42172 17.1714 6.74868 17.9982 6.74868C18.8251 6.74868 19.4983 7.42172 19.4983 8.24849C19.4983 9.07526 18.8251 9.74831 17.9982 9.74831C17.7207 9.74831 17.4638 9.66769 17.2407 9.53552L16.0126 10.7635C15.9423 10.8338 15.8476 10.8732 15.7472 10.8732H14.2472V11.6231H17.6757C17.8435 10.9782 18.4257 10.4982 19.1223 10.4982C19.9492 10.4982 20.6223 11.1713 20.6223 11.998C20.6223 12.8248 19.9492 13.4979 19.1223 13.4979C18.4248 13.4979 17.8435 13.0179 17.6757 12.373H14.2472V13.1229H15.7472C15.8466 13.1229 15.9423 13.1623 16.0126 13.2326L17.2407 14.4605C17.4639 14.3293 17.7207 14.2478 17.9982 14.2478C18.8251 14.2478 19.4983 14.9208 19.4983 15.7476C19.4983 16.5743 18.8251 17.2474 17.9982 17.2474C17.1714 17.2474 16.4982 16.5743 16.4982 15.7476C16.4982 15.4701 16.5788 15.2133 16.711 14.9902L15.5935 13.8728H14.2491V14.4671L15.2644 15.4823C15.3347 15.5526 15.3741 15.6483 15.3741 15.7476V16.9259C16.0191 17.0937 16.4992 17.6758 16.4992 18.3723C16.4992 19.1991 15.826 19.8721 14.9991 19.8721C14.1722 19.8721 13.4991 19.1991 13.4991 18.3723C13.4991 17.6758 13.9791 17.0937 14.6241 16.9259V15.9032L13.7185 14.9977H11.999V15.7476H13.1241C13.3312 15.7476 13.4991 15.9154 13.4991 16.1226C13.4991 16.3298 13.3312 16.4976 13.1241 16.4976H11.999V21.3718H13.4991L15.1304 23.6216L18.646 22.1658L18.1322 19.5703C18.8251 19.0444 19.4317 18.4314 19.9454 17.7546L22.5442 18.2682L24.0002 14.7532L21.7989 13.2796C21.9142 12.4378 21.9189 11.5754 21.8007 10.7141L21.8016 10.7156Z" fill="#129CFF"/>
<path d="M12 9.74951H13.5V14.249H12V9.74951Z" fill="#129CFF"/>
<path d="M18.75 15.7489C18.75 15.3355 18.4135 14.999 18 14.999C17.7938 14.999 17.6063 15.0834 17.4703 15.2184V15.2193H17.4694C17.3344 15.3552 17.25 15.5418 17.25 15.7489C17.25 16.1623 17.5866 16.4988 18 16.4988C18.4135 16.4988 18.75 16.1623 18.75 15.7489Z" fill="#129CFF"/>
<path d="M15.75 5.62515C15.75 6.62534 14.25 6.62534 14.25 5.62515C14.25 4.62495 15.75 4.62495 15.75 5.62515Z" fill="#129CFF"/>
<path d="M19.875 11.9992C19.875 12.9994 18.375 12.9994 18.375 11.9992C18.375 10.999 19.875 10.999 19.875 11.9992Z" fill="#129CFF"/>
<path d="M17.4703 8.78047C17.6063 8.91545 17.7928 8.99982 18 8.99982C18.4135 8.99982 18.75 8.66331 18.75 8.24991C18.75 7.83651 18.4135 7.5 18 7.5C17.5866 7.5 17.25 7.83651 17.25 8.24991C17.25 8.45613 17.3344 8.6436 17.4694 8.77952H17.4703L17.4703 8.78047Z" fill="#129CFF"/>
<path d="M8.11813 0.00451838C6.29557 0.0870082 4.8742 1.50059 4.8742 3.37538C4.8742 5.77701 6.76987 6.36566 6.85332 6.38989C7.05208 6.44707 7.1702 6.65518 7.1102 6.85296C7.02207 7.14074 6.68081 7.12106 6.64706 7.11074C6.62175 7.10324 4.14019 6.36083 4.12603 3.40056C3.32633 3.52335 2.11223 4.01829 1.64628 5.85473C1.33127 7.09584 1.55253 7.99947 1.89754 8.62183C1.04252 9.06429 0 10.0129 0 12.0001C0 13.9874 1.04252 14.9359 1.89754 15.3784C1.55253 16.0009 1.33127 16.9045 1.64628 18.1455C2.11316 19.9819 3.32726 20.4768 4.12603 20.5997C4.14009 17.6394 6.62162 16.897 6.64706 16.8895C6.84581 16.8333 7.05207 16.9477 7.10927 17.1464C7.16646 17.3451 7.05208 17.5523 6.85426 17.6104C6.77363 17.6338 4.87514 18.2216 4.87514 20.6249C4.87514 22.4997 6.29644 23.9132 8.11907 23.9958C10.3841 24.1007 11.2504 22.2372 11.2504 20.6249V13.7183C10.386 15.5068 8.68909 15.7459 8.66293 15.7487C8.6498 15.7496 8.63761 15.7505 8.62543 15.7505C8.43511 15.7505 8.27197 15.6062 8.25229 15.4131C8.23166 15.2069 8.38166 15.0231 8.58791 15.0025C8.69573 14.9913 10.8558 14.7054 10.8755 12.0039C10.8558 9.31163 8.69479 9.01071 8.58695 8.99943C8.38163 8.97787 8.23162 8.79508 8.25226 8.58887C8.27289 8.38264 8.45664 8.23359 8.66289 8.25329C8.68914 8.2561 10.3861 8.49513 11.2504 10.2865L11.2495 3.3751C11.2495 1.76278 10.3832 -0.100634 8.1181 0.00423329L8.11813 0.00451838ZM6.86748 12.3556C4.91275 13.007 4.8743 14.9156 4.8743 15.0008C4.8743 15.207 4.70554 15.3748 4.49929 15.3748C4.29303 15.3748 4.12428 15.207 4.12428 14.9998C4.12428 14.2555 4.5068 12.8157 5.85494 12.0002C4.50678 11.1847 4.12428 9.74485 4.12428 9.00056C4.12428 8.79433 4.29116 8.62747 4.49835 8.62654H4.49929C4.70555 8.62654 4.87243 8.79339 4.8743 8.99962C4.8743 9.08024 4.9118 10.9925 6.86748 11.6448C7.0203 11.6954 7.12436 11.8389 7.12436 12.001C7.12436 12.1623 7.02123 12.3057 6.86748 12.3572L6.86748 12.3556Z" fill="#129CFF"/>
</svg>
