<svg width="24" height="21" viewBox="0 0 24 21" fill="none" xmlns="http://www.w3.org/2000/svg">
<path d="M10.0002 12.2499C9.58596 12.2499 9.25018 12.5857 9.25018 12.9999C9.25018 13.4141 9.58596 13.7499 10.0002 13.7499H16.0002C16.4144 13.7499 16.7502 13.4141 16.7502 12.9999C16.7502 12.5857 16.4144 12.2499 16.0002 12.2499H10.0002Z" fill="white"/>
<path fill-rule="evenodd" clip-rule="evenodd" d="M1.72778 0.818032C1.62732 0.416185 1.22012 0.171865 0.818276 0.272326C0.41643 0.372788 0.172109 0.779989 0.272571 1.18183L1.32431 5.38881L2.30312 9.47281C2.71932 11.2094 3.04692 12.5763 3.43566 13.6382C3.83442 14.7274 4.32343 15.5731 5.108 16.2215C5.17571 16.2775 5.24469 16.3319 5.3149 16.3847C6.12835 16.9965 7.06466 17.275 8.21686 17.4089C9.3401 17.5394 10.7457 17.5394 12.5314 17.5394H13.1248C14.6699 17.5394 15.8862 17.5394 16.866 17.4403C17.8696 17.3388 18.6953 17.1282 19.4385 16.663C19.7909 16.4423 20.1185 16.184 20.4152 15.8926C21.0409 15.2784 21.4382 14.5245 21.7708 13.5722C22.0955 12.6424 22.3789 11.4597 22.739 9.95721L22.7599 9.86994C22.9771 8.96402 23.1561 8.21736 23.2252 7.61247C23.297 6.98468 23.2677 6.38692 22.9543 5.84113C22.8203 5.60769 22.6527 5.3952 22.4569 5.21045C21.9992 4.77849 21.4247 4.6107 20.7975 4.53416C20.1931 4.46042 19.4254 4.46044 18.4937 4.46046L2.63839 4.46046L1.72778 0.818032ZM3.75071 9.07688L3.0038 5.96046H18.4451C19.4376 5.96046 20.1131 5.96178 20.6158 6.02312C21.1061 6.08295 21.3071 6.18787 21.4274 6.30137C21.5164 6.38534 21.5926 6.48193 21.6535 6.58804C21.7358 6.73144 21.791 6.95138 21.7349 7.44212C21.6774 7.94526 21.5212 8.60251 21.2899 9.56767C20.9182 11.1188 20.6515 12.2277 20.3546 13.0776C20.0628 13.9131 19.7636 14.4304 19.3644 14.8222C19.145 15.0376 18.903 15.2285 18.6424 15.3916C18.1683 15.6885 17.5956 15.8589 16.7151 15.9479C15.8194 16.0385 14.6789 16.0394 13.0838 16.0394H12.5791C10.7353 16.0394 9.41669 16.0382 8.39003 15.9189C7.38234 15.8018 6.73808 15.5782 6.21654 15.1859C6.16465 15.1469 6.11366 15.1067 6.06362 15.0653C5.56059 14.6496 5.19299 14.0752 4.84424 13.1225C4.48892 12.1519 4.18045 10.8699 3.75071 9.07688Z" fill="white"/>
<path d="M10.4739 19.9473C10.4739 20.5287 10.0026 20.9999 9.42122 20.9999C8.83987 20.9999 8.36859 20.5287 8.36859 19.9473C8.36859 19.3659 8.83987 18.8947 9.42122 18.8947C10.0026 18.8947 10.4739 19.3659 10.4739 19.9473Z" fill="white"/>
<path d="M16.7896 19.9473C16.7896 20.5287 16.3184 20.9999 15.737 20.9999C15.1557 20.9999 14.6844 20.5287 14.6844 19.9473C14.6844 19.3659 15.1557 18.8947 15.737 18.8947C16.3184 18.8947 16.7896 19.3659 16.7896 19.9473Z" fill="white"/>
</svg>
