<svg width="16" height="17" viewBox="0 0 16 17" fill="none" xmlns="http://www.w3.org/2000/svg">
<path d="M5.33289 4.81219C5.05956 4.81223 4.83286 4.58559 4.83283 4.31226L4.83258 2.31226C4.83255 2.03892 5.05919 1.81223 5.33252 1.81219C5.60585 1.81216 5.83255 2.0388 5.83258 2.31213L5.83283 4.31213C5.83286 4.58547 5.60622 4.81216 5.33289 4.81219Z" fill="#7B79DC"/>
<path d="M10.6664 4.81146C10.3931 4.8115 10.1664 4.58486 10.1663 4.31152L10.1661 2.31152C10.166 2.03819 10.3927 1.8115 10.666 1.81146C10.9393 1.81143 11.166 2.03807 11.1661 2.3114L11.1663 4.3114C11.1664 4.58473 10.9397 4.81143 10.6664 4.81146Z" fill="#7B79DC"/>
<path d="M5.66683 10.6455C5.58016 10.6455 5.49349 10.6255 5.41349 10.5922C5.32682 10.5589 5.26015 10.5122 5.19347 10.4522C5.07346 10.3255 5.0001 10.1589 5.00008 9.97889C5.00007 9.89222 5.02006 9.80555 5.05338 9.72554C5.08671 9.64554 5.13337 9.57221 5.19336 9.50553C5.26002 9.44553 5.32668 9.39884 5.41334 9.36549C5.65333 9.26546 5.95333 9.31877 6.14002 9.50542C6.26004 9.63207 6.33339 9.80539 6.33342 9.97872C6.33342 10.0187 6.32676 10.0654 6.3201 10.1121C6.31344 10.1521 6.30011 10.1921 6.28011 10.2321C6.26678 10.2721 6.24679 10.3121 6.22013 10.3521C6.20013 10.3854 6.1668 10.4187 6.14014 10.4521C6.01349 10.5721 5.84016 10.6454 5.66683 10.6455Z" fill="#7B79DC"/>
<path d="M8.00033 10.6453C7.91366 10.6453 7.82699 10.6253 7.74699 10.592C7.66032 10.5586 7.59364 10.512 7.52697 10.452C7.40695 10.3253 7.3336 10.1587 7.33358 9.97868C7.33357 9.89201 7.35356 9.80534 7.38688 9.72533C7.4202 9.64533 7.46686 9.572 7.52685 9.50532C7.59351 9.44532 7.66017 9.39863 7.74684 9.36528C7.98682 9.25859 8.28683 9.31856 8.47352 9.50521C8.59353 9.63186 8.66689 9.80518 8.66691 9.97851C8.66692 10.0185 8.66026 10.0652 8.65359 10.1119C8.64693 10.1519 8.6336 10.1919 8.61361 10.2319C8.60028 10.2719 8.58029 10.3119 8.55363 10.3519C8.53363 10.3852 8.5003 10.4185 8.47364 10.4519C8.34698 10.5719 8.17366 10.6452 8.00033 10.6453Z" fill="#7B79DC"/>
<path d="M10.3333 10.6448C10.2467 10.6448 10.16 10.6248 10.08 10.5915C9.99332 10.5582 9.92665 10.5115 9.85998 10.4515C9.83331 10.4182 9.80663 10.3848 9.77996 10.3515C9.75329 10.3115 9.73329 10.2715 9.71995 10.2315C9.69995 10.1915 9.68661 10.1515 9.67994 10.1115C9.67326 10.0649 9.66659 10.0182 9.66659 9.97819C9.66656 9.80485 9.73988 9.63152 9.85986 9.50484C9.92652 9.44483 9.99318 9.39814 10.0798 9.36479C10.3265 9.2581 10.6198 9.31808 10.8065 9.50472C10.9265 9.63137 10.9999 9.80469 10.9999 9.97802C10.9999 10.018 10.9933 10.0647 10.9866 10.1114C10.9799 10.1514 10.9666 10.1914 10.9466 10.2314C10.9333 10.2714 10.9133 10.3114 10.8866 10.3514C10.8666 10.3847 10.8333 10.418 10.8066 10.4514C10.68 10.5714 10.5067 10.6448 10.3333 10.6448Z" fill="#7B79DC"/>
<path d="M5.66732 12.9787C5.58065 12.9787 5.49398 12.9588 5.41398 12.9254C5.33397 12.8921 5.26064 12.8454 5.19396 12.7854C5.07395 12.6588 5.00059 12.4855 5.00057 12.3121C5.00056 12.2255 5.02055 12.1388 5.05387 12.0588C5.0872 11.9721 5.13385 11.8988 5.19385 11.8388C5.44048 11.5921 5.89381 11.592 6.14051 11.8387C6.26053 11.9653 6.33388 12.1386 6.3339 12.312C6.33392 12.4853 6.26061 12.6586 6.14063 12.7853C6.01398 12.9053 5.84065 12.9787 5.66732 12.9787Z" fill="#7B79DC"/>
<path d="M8.00033 12.9785C7.82699 12.9785 7.65365 12.9052 7.52697 12.7852C7.40695 12.6585 7.3336 12.4852 7.33358 12.3119C7.33357 12.2252 7.35356 12.1386 7.38688 12.0585C7.4202 11.9719 7.46686 11.8985 7.52685 11.8385C7.77349 11.5918 8.22682 11.5918 8.47352 11.8384C8.53353 11.8984 8.5802 11.9717 8.61354 12.0584C8.64689 12.1384 8.6669 12.2251 8.66691 12.3117C8.66693 12.4851 8.59362 12.6584 8.47363 12.7851C8.34698 12.9051 8.17366 12.9785 8.00033 12.9785Z" fill="#7B79DC"/>
<path d="M10.3338 12.9781C10.1605 12.9782 9.98715 12.9048 9.86047 12.7849C9.80046 12.7249 9.75378 12.6515 9.72044 12.5649C9.6871 12.4849 9.66708 12.3982 9.66707 12.3115C9.66706 12.2249 9.68705 12.1382 9.72038 12.0582C9.7537 11.9715 9.80036 11.8982 9.86035 11.8382C10.0137 11.6848 10.247 11.6115 10.4603 11.6581C10.507 11.6648 10.547 11.6781 10.587 11.6981C10.627 11.7114 10.667 11.7314 10.707 11.7581C10.7403 11.7781 10.7737 11.8114 10.807 11.8381C10.927 11.9647 11.0004 12.138 11.0004 12.3114C11.0004 12.4847 10.9271 12.6581 10.8071 12.7847C10.6805 12.9047 10.5072 12.9781 10.3338 12.9781Z" fill="#7B79DC"/>
<path d="M13.6665 7.53785L2.33313 7.53925C2.0598 7.53928 1.8331 7.31264 1.83307 7.03931C1.83304 6.76597 2.05967 6.53928 2.33301 6.53925L13.6663 6.53785C13.9397 6.53782 14.1664 6.76446 14.1664 7.03779C14.1664 7.31112 13.9398 7.53782 13.6665 7.53785Z" fill="#7B79DC"/>
<path d="M10.6673 16.1449L5.334 16.1456C2.90066 16.1459 1.50049 14.7461 1.50019 12.3127L1.4995 6.64608C1.4992 4.21274 2.89902 2.81257 5.33236 2.81227L10.6657 2.81162C13.099 2.81132 14.4992 4.21114 14.4995 6.64448L14.5002 12.3111C14.5005 14.7445 13.1007 16.1447 10.6673 16.1449ZM5.33248 3.81227C3.42581 3.81251 2.49926 4.73929 2.4995 6.64595L2.50019 12.3126C2.50043 14.2193 3.42721 15.1458 5.33387 15.1456L10.6672 15.1449C12.5739 15.1447 13.5004 14.2179 13.5002 12.3113L13.4995 6.6446C13.4993 4.73793 12.5725 3.81138 10.6658 3.81162L5.33248 3.81227Z" fill="#7B79DC"/>
</svg>
