<svg width="21" height="20" viewBox="0 0 21 20" fill="none" xmlns="http://www.w3.org/2000/svg">
<path d="M10.4998 18.9583C5.55817 18.9583 1.5415 14.9416 1.5415 9.99996C1.5415 5.05829 5.55817 1.04163 10.4998 1.04163C15.4415 1.04163 19.4582 5.05829 19.4582 9.99996C19.4582 14.9416 15.4415 18.9583 10.4998 18.9583ZM10.4998 2.29163C6.24984 2.29163 2.7915 5.74996 2.7915 9.99996C2.7915 14.25 6.24984 17.7083 10.4998 17.7083C14.7498 17.7083 18.2082 14.25 18.2082 9.99996C18.2082 5.74996 14.7498 2.29163 10.4998 2.29163Z" fill="#828282"/>
<path d="M13.5919 13.275C13.4835 13.275 13.3752 13.25 13.2752 13.1833L10.6919 11.6416C10.0502 11.2583 9.5752 10.4166 9.5752 9.67497V6.2583C9.5752 5.91663 9.85853 5.6333 10.2002 5.6333C10.5419 5.6333 10.8252 5.91663 10.8252 6.2583V9.67497C10.8252 9.97497 11.0752 10.4166 11.3335 10.5666L13.9169 12.1083C14.2169 12.2833 14.3085 12.6666 14.1335 12.9666C14.0085 13.1666 13.8002 13.275 13.5919 13.275Z" fill="#828282"/>
</svg>
