<svg width="32" height="32" viewBox="0 0 32 32" fill="none" xmlns="http://www.w3.org/2000/svg">
<rect width="32" height="32" rx="10" fill="#F5F2FF"/>
<g filter="url(#filter0_d_297_4632)">
<path d="M20.1665 23.2916H11.8332C8.15817 23.2916 7.0415 22.1749 7.0415 18.4999V18.0833C7.0415 17.7416 7.32484 17.4583 7.6665 17.4583C8.4665 17.4583 9.12484 16.7999 9.12484 15.9999C9.12484 15.1999 8.4665 14.5416 7.6665 14.5416C7.32484 14.5416 7.0415 14.2583 7.0415 13.9166V13.4999C7.0415 9.82492 8.15817 8.70825 11.8332 8.70825H20.1665C23.8415 8.70825 24.9582 9.82492 24.9582 13.4999V14.3333C24.9582 14.6749 24.6748 14.9583 24.3332 14.9583C23.5332 14.9583 22.8748 15.6166 22.8748 16.4166C22.8748 17.2166 23.5332 17.8749 24.3332 17.8749C24.6748 17.8749 24.9582 18.1583 24.9582 18.4999C24.9582 22.1749 23.8415 23.2916 20.1665 23.2916ZM8.2915 18.6333C8.30817 21.4999 8.89984 22.0416 11.8332 22.0416H20.1665C22.9498 22.0416 23.6248 21.5499 23.6998 19.0499C22.5082 18.7666 21.6248 17.6916 21.6248 16.4166C21.6248 15.1416 22.5165 14.0666 23.7082 13.7833V13.4999C23.7082 10.5249 23.1415 9.95825 20.1665 9.95825H11.8332C8.89984 9.95825 8.30817 10.4999 8.2915 13.3666C9.48317 13.6499 10.3748 14.7249 10.3748 15.9999C10.3748 17.2749 9.48317 18.3499 8.2915 18.6333Z" fill="#7B79DC"/>
<path d="M18.4999 19.2333C18.0332 19.2333 17.6582 18.8583 17.6582 18.4C17.6582 17.9417 18.0332 17.5667 18.4915 17.5667C18.9499 17.5667 19.3249 17.9417 19.3249 18.4C19.3249 18.8583 18.9665 19.2333 18.4999 19.2333Z" fill="#7B79DC"/>
<path d="M13.4999 15.0666C13.0332 15.0666 12.6582 14.6916 12.6582 14.2332C12.6582 13.7749 13.0332 13.3999 13.4915 13.3999C13.9499 13.3999 14.3249 13.7749 14.3249 14.2332C14.3249 14.6916 13.9665 15.0666 13.4999 15.0666Z" fill="#7B79DC"/>
<path d="M13.1918 19.6917C13.0334 19.6917 12.8751 19.6334 12.7501 19.5084C12.5084 19.2667 12.5084 18.8667 12.7501 18.625L18.3584 13.0167C18.6001 12.775 19.0001 12.775 19.2418 13.0167C19.4834 13.2584 19.4834 13.6584 19.2418 13.9L13.6334 19.5084C13.5168 19.6334 13.3501 19.6917 13.1918 19.6917Z" fill="#7B79DC"/>
</g>
<defs>
<filter id="filter0_d_297_4632" x="2" y="6" width="28" height="28" filterUnits="userSpaceOnUse" color-interpolation-filters="sRGB">
<feFlood flood-opacity="0" result="BackgroundImageFix"/>
<feColorMatrix in="SourceAlpha" type="matrix" values="0 0 0 0 0 0 0 0 0 0 0 0 0 0 0 0 0 0 127 0" result="hardAlpha"/>
<feOffset dy="4"/>
<feGaussianBlur stdDeviation="2"/>
<feComposite in2="hardAlpha" operator="out"/>
<feColorMatrix type="matrix" values="0 0 0 0 0 0 0 0 0 0 0 0 0 0 0 0 0 0 0.25 0"/>
<feBlend mode="normal" in2="BackgroundImageFix" result="effect1_dropShadow_297_4632"/>
<feBlend mode="normal" in="SourceGraphic" in2="effect1_dropShadow_297_4632" result="shape"/>
</filter>
</defs>
</svg>
