<svg width="48" height="48" viewBox="0 0 48 48" fill="none" xmlns="http://www.w3.org/2000/svg">
<circle cx="24" cy="24" r="24" fill="#F5F2FF"/>
<path d="M29 33.25H19C15.35 33.25 13.25 31.15 13.25 27.5V20.5C13.25 16.85 15.35 14.75 19 14.75H29C32.65 14.75 34.75 16.85 34.75 20.5V27.5C34.75 31.15 32.65 33.25 29 33.25ZM19 16.25C16.14 16.25 14.75 17.64 14.75 20.5V27.5C14.75 30.36 16.14 31.75 19 31.75H29C31.86 31.75 33.25 30.36 33.25 27.5V20.5C33.25 17.64 31.86 16.25 29 16.25H19Z" fill="#7B79DC"/>
<path d="M24 24.87C23.16 24.87 22.31 24.61 21.66 24.08L18.53 21.58C18.21 21.32 18.15 20.85 18.41 20.53C18.67 20.21 19.14 20.15 19.46 20.41L22.59 22.91C23.35 23.52 24.64 23.52 25.4 22.91L28.53 20.41C28.85 20.15 29.33 20.2 29.58 20.53C29.84 20.85 29.79 21.33 29.46 21.58L26.33 24.08C25.69 24.61 24.84 24.87 24 24.87Z" fill="#7B79DC"/>
</svg>
