<svg width="20" height="21" viewBox="0 0 20 21" fill="none" xmlns="http://www.w3.org/2000/svg">
<path d="M5.83366 9.45841H4.16699C2.15033 9.45841 1.04199 8.35008 1.04199 6.33341V4.66675C1.04199 2.65008 2.15033 1.54175 4.16699 1.54175H5.83366C7.85033 1.54175 8.95866 2.65008 8.95866 4.66675V6.33341C8.95866 8.35008 7.85033 9.45841 5.83366 9.45841ZM4.16699 2.79175C2.85033 2.79175 2.29199 3.35008 2.29199 4.66675V6.33341C2.29199 7.65008 2.85033 8.20841 4.16699 8.20841H5.83366C7.15033 8.20841 7.70866 7.65008 7.70866 6.33341V4.66675C7.70866 3.35008 7.15033 2.79175 5.83366 2.79175H4.16699Z" fill="#7B79DC"/>
<path d="M15.8337 9.45841H14.167C12.1503 9.45841 11.042 8.35008 11.042 6.33341V4.66675C11.042 2.65008 12.1503 1.54175 14.167 1.54175H15.8337C17.8503 1.54175 18.9587 2.65008 18.9587 4.66675V6.33341C18.9587 8.35008 17.8503 9.45841 15.8337 9.45841ZM14.167 2.79175C12.8503 2.79175 12.292 3.35008 12.292 4.66675V6.33341C12.292 7.65008 12.8503 8.20841 14.167 8.20841H15.8337C17.1503 8.20841 17.7087 7.65008 17.7087 6.33341V4.66675C17.7087 3.35008 17.1503 2.79175 15.8337 2.79175H14.167Z" fill="#7B79DC"/>
<path d="M15.8337 19.4584H14.167C12.1503 19.4584 11.042 18.3501 11.042 16.3334V14.6667C11.042 12.6501 12.1503 11.5417 14.167 11.5417H15.8337C17.8503 11.5417 18.9587 12.6501 18.9587 14.6667V16.3334C18.9587 18.3501 17.8503 19.4584 15.8337 19.4584ZM14.167 12.7917C12.8503 12.7917 12.292 13.3501 12.292 14.6667V16.3334C12.292 17.6501 12.8503 18.2084 14.167 18.2084H15.8337C17.1503 18.2084 17.7087 17.6501 17.7087 16.3334V14.6667C17.7087 13.3501 17.1503 12.7917 15.8337 12.7917H14.167Z" fill="#7B79DC"/>
<path d="M5.83366 19.4584H4.16699C2.15033 19.4584 1.04199 18.3501 1.04199 16.3334V14.6667C1.04199 12.6501 2.15033 11.5417 4.16699 11.5417H5.83366C7.85033 11.5417 8.95866 12.6501 8.95866 14.6667V16.3334C8.95866 18.3501 7.85033 19.4584 5.83366 19.4584ZM4.16699 12.7917C2.85033 12.7917 2.29199 13.3501 2.29199 14.6667V16.3334C2.29199 17.6501 2.85033 18.2084 4.16699 18.2084H5.83366C7.15033 18.2084 7.70866 17.6501 7.70866 16.3334V14.6667C7.70866 13.3501 7.15033 12.7917 5.83366 12.7917H4.16699Z" fill="#7B79DC"/>
</svg>
