<svg width="20" height="20" viewBox="0 0 20 20" fill="none" xmlns="http://www.w3.org/2000/svg">
<path d="M10.0002 18.9332C7.77521 18.9332 5.54187 18.1332 3.85021 16.5249C2.07521 14.8416 1.07521 12.5749 1.04188 10.1415C1.00855 7.69987 1.94187 5.4082 3.66687 3.6832C7.15854 0.191536 12.8419 0.191536 16.3336 3.6832C18.0585 5.4082 18.9919 7.69987 18.9585 10.1415C18.9252 12.5832 17.9252 14.8499 16.1502 16.5249C14.4585 18.1332 12.2252 18.9332 10.0002 18.9332ZM10.0002 2.31658C8.02521 2.31658 6.0502 3.06653 4.5502 4.56653C3.06687 6.04987 2.26688 8.0249 2.29188 10.1249C2.31688 12.2249 3.17521 14.1749 4.70854 15.6165C7.62521 18.3832 12.3752 18.3749 15.2919 15.6165C16.8169 14.1749 17.6752 12.2166 17.7085 10.1249C17.7419 8.03324 16.9336 6.04987 15.4502 4.56653C13.9502 3.06653 11.9752 2.31658 10.0002 2.31658Z" fill="#7B79DC"/>
<path d="M9.99963 15.2669C8.68297 15.2669 7.37463 14.7919 6.37463 13.8502C6.12463 13.6086 6.1163 13.2169 6.34963 12.9669C6.5913 12.7169 6.98296 12.7086 7.23296 12.9419C8.75796 14.3836 11.2413 14.3836 12.7663 12.9419C13.0163 12.7086 13.4163 12.7169 13.6496 12.9669C13.883 13.2169 13.8746 13.6169 13.6246 13.8502C12.6246 14.7919 11.3163 15.2669 9.99963 15.2669Z" fill="#7B79DC"/>
</svg>
