<svg width="19" height="20" viewBox="0 0 19 20" fill="none" xmlns="http://www.w3.org/2000/svg">
<path d="M10.3998 12.4917C10.2415 12.4917 10.0831 12.4334 9.95814 12.3084L7.8248 10.1751C7.58314 9.93339 7.58314 9.53339 7.8248 9.29172C8.06647 9.05006 8.46647 9.05006 8.70814 9.29172L10.3998 10.9834L12.0915 9.29172C12.3331 9.05006 12.7331 9.05006 12.9748 9.29172C13.2165 9.53339 13.2165 9.93339 12.9748 10.1751L10.8415 12.3084C10.7165 12.4334 10.5581 12.4917 10.3998 12.4917Z" fill="#7B79DC"/>
<path d="M10.3999 12.4334C10.0582 12.4334 9.7749 12.15 9.7749 11.8084V3.33337C9.7749 2.99171 10.0582 2.70837 10.3999 2.70837C10.7416 2.70837 11.0249 2.99171 11.0249 3.33337V11.8084C11.0249 12.15 10.7416 12.4334 10.3999 12.4334Z" fill="#7B79DC"/>
<path d="M10.5002 17.4417C6.2085 17.4417 3.2085 14.4417 3.2085 10.15C3.2085 9.80836 3.49183 9.52502 3.8335 9.52502C4.17516 9.52502 4.4585 9.80836 4.4585 10.15C4.4585 13.7084 6.94183 16.1917 10.5002 16.1917C14.0585 16.1917 16.5418 13.7084 16.5418 10.15C16.5418 9.80836 16.8252 9.52502 17.1668 9.52502C17.5085 9.52502 17.7918 9.80836 17.7918 10.15C17.7918 14.4417 14.7918 17.4417 10.5002 17.4417Z" fill="#7B79DC"/>
</svg>
