<svg width="16" height="17" viewBox="0 0 16 17" fill="none" xmlns="http://www.w3.org/2000/svg">
<path d="M1.5588 2.63836C1.26815 2.63836 1.01902 2.53456 0.811412 2.32695C0.603804 2.11934 0.5 1.86329 0.5 1.5588C0.5 1.25431 0.603804 1.00518 0.811412 0.811412C1.01902 0.603804 1.26815 0.5 1.5588 0.5C1.84945 0.5 2.09858 0.603804 2.30619 0.811412C2.5138 1.00518 2.6176 1.25431 2.6176 1.5588C2.6176 1.86329 2.5138 2.11934 2.30619 2.32695C2.09858 2.53456 1.84945 2.63836 1.5588 2.63836ZM1.5588 4.77673C1.96011 4.77673 2.28543 5.10205 2.28543 5.50336V15.3855C2.28543 15.7868 1.96011 16.1121 1.5588 16.1121C1.1575 16.1121 0.832173 15.7868 0.832173 15.3855V5.50336C0.832173 5.10205 1.1575 4.77673 1.5588 4.77673Z" fill="#7B79DC"/>
<path d="M10.8911 4.56912C12.2475 4.56912 13.3547 4.99126 14.2128 5.83553C15.071 6.66596 15.5 7.87701 15.5 9.46867V15.3959C15.5 15.7915 15.1793 16.1121 14.7838 16.1121C14.3882 16.1121 14.0675 15.7915 14.0675 15.3959V9.63476C14.0675 8.40295 13.7561 7.46179 13.1333 6.81129C12.5243 6.16078 11.6869 5.83553 10.6212 5.83553C9.52782 5.83553 8.65586 6.18154 8.00536 6.87357C7.35485 7.5656 7.0296 8.58288 7.0296 9.92541V15.3855C7.0296 15.7868 6.70428 16.1121 6.30297 16.1121C5.90167 16.1121 5.57634 15.7868 5.57634 15.3855V5.50336C5.57634 5.10205 5.90167 4.77673 6.30297 4.77673C6.70428 4.77673 7.0296 5.10205 7.0296 5.50336V5.74211C7.0296 5.98911 7.41023 6.09797 7.57541 5.91432C7.85996 5.59795 8.19704 5.3364 8.58666 5.12966C9.26485 4.75597 10.033 4.56912 10.8911 4.56912Z" fill="#7B79DC"/>
</svg>
