<svg width="40" height="40" viewBox="0 0 40 40" fill="none" xmlns="http://www.w3.org/2000/svg">
<circle cx="20" cy="20" r="20" fill="#F5F2FF"/>
<path d="M13.7357 27.2629L14.1031 26.7573L13.7357 27.2629ZM12.7371 26.2643L13.2427 25.897L12.7371 26.2643ZM27.2629 26.2643L26.7573 25.897L27.2629 26.2643ZM26.2643 27.2629L25.897 26.7573L26.2643 27.2629ZM26.2643 12.7371L25.897 13.2427L26.2643 12.7371ZM27.2629 13.7357L26.7573 14.1031L27.2629 13.7357ZM13.7357 12.7371L14.1031 13.2427L13.7357 12.7371ZM12.7371 13.7357L13.2427 14.1031L12.7371 13.7357ZM20 27.5C18.2935 27.5 17.0638 27.4992 16.1107 27.3959C15.1692 27.2939 14.572 27.098 14.1031 26.7573L13.3683 27.7686C14.0859 28.2899 14.9283 28.5251 15.976 28.6386C17.0121 28.7509 18.3213 28.75 20 28.75V27.5ZM11.25 20C11.25 21.6787 11.2491 22.9879 11.3614 24.024C11.4749 25.0718 11.7101 25.9141 12.2314 26.6317L13.2427 25.897C12.902 25.428 12.7061 24.8308 12.6041 23.8893C12.5009 22.9362 12.5 21.7065 12.5 20H11.25ZM14.1031 26.7573C13.7729 26.5174 13.4826 26.2271 13.2427 25.897L12.2314 26.6317C12.5484 27.068 12.9321 27.4516 13.3683 27.7686L14.1031 26.7573ZM27.5 20C27.5 21.7065 27.4992 22.9362 27.3959 23.8893C27.2939 24.8308 27.098 25.428 26.7573 25.897L27.7686 26.6317C28.2899 25.9141 28.5251 25.0718 28.6386 24.024C28.7509 22.9879 28.75 21.6787 28.75 20H27.5ZM20 28.75C21.6787 28.75 22.9879 28.7509 24.024 28.6386C25.0718 28.5251 25.9141 28.2899 26.6317 27.7686L25.897 26.7573C25.428 27.098 24.8308 27.2939 23.8893 27.3959C22.9362 27.4992 21.7065 27.5 20 27.5V28.75ZM26.7573 25.897C26.5174 26.2271 26.2271 26.5174 25.897 26.7573L26.6317 27.7686C27.068 27.4516 27.4516 27.068 27.7686 26.6317L26.7573 25.897ZM20 12.5C21.7065 12.5 22.9362 12.5009 23.8893 12.6041C24.8308 12.7061 25.428 12.902 25.897 13.2427L26.6317 12.2314C25.9141 11.7101 25.0718 11.4749 24.024 11.3614C22.9879 11.2491 21.6787 11.25 20 11.25V12.5ZM28.75 20C28.75 18.3213 28.7509 17.0121 28.6386 15.976C28.5251 14.9283 28.2899 14.0859 27.7686 13.3683L26.7573 14.1031C27.098 14.572 27.2939 15.1692 27.3959 16.1107C27.4992 17.0638 27.5 18.2935 27.5 20H28.75ZM25.897 13.2427C26.2271 13.4826 26.5174 13.7729 26.7573 14.1031L27.7686 13.3683C27.4516 12.9321 27.068 12.5484 26.6317 12.2314L25.897 13.2427ZM20 11.25C18.3213 11.25 17.0121 11.2491 15.976 11.3614C14.9283 11.4749 14.0859 11.7101 13.3683 12.2314L14.1031 13.2427C14.572 12.902 15.1692 12.7061 16.1107 12.6041C17.0638 12.5009 18.2935 12.5 20 12.5V11.25ZM12.5 20C12.5 18.2935 12.5009 17.0638 12.6041 16.1107C12.7061 15.1692 12.902 14.572 13.2427 14.1031L12.2314 13.3683C11.7101 14.0859 11.4749 14.9283 11.3614 15.976C11.2491 17.0121 11.25 18.3213 11.25 20H12.5ZM13.3683 12.2314C12.9321 12.5484 12.5484 12.9321 12.2314 13.3683L13.2427 14.1031C13.4826 13.7729 13.7729 13.4826 14.1031 13.2427L13.3683 12.2314ZM16.6667 20C16.6667 21.841 18.1591 23.3333 20 23.3333V22.0833C18.8494 22.0833 17.9167 21.1506 17.9167 20H16.6667ZM20 23.3333C21.841 23.3333 23.3333 21.841 23.3333 20H22.0833C22.0833 21.1506 21.1506 22.0833 20 22.0833V23.3333ZM23.3333 20C23.3333 18.1591 21.841 16.6667 20 16.6667V17.9167C21.1506 17.9167 22.0833 18.8494 22.0833 20H23.3333ZM20 16.6667C18.1591 16.6667 16.6667 18.1591 16.6667 20H17.9167C17.9167 18.8494 18.8494 17.9167 20 17.9167V16.6667Z" fill="#7B79DC"/>
<path d="M23.6113 15.4863C23.6113 15.9849 24.0155 16.3891 24.5141 16.3891C25.0127 16.3891 25.4169 15.9849 25.4169 15.4863C25.4169 14.9877 25.0127 14.5835 24.5141 14.5835C24.0155 14.5835 23.6113 14.9877 23.6113 15.4863Z" fill="#7B79DC"/>
</svg>
