<svg width="21" height="20" viewBox="0 0 21 20" fill="none" xmlns="http://www.w3.org/2000/svg">
<path d="M10.8942 11.8084C9.10038 11.8084 7.63504 10.3667 7.63504 8.58337C7.63504 6.80003 9.10038 5.3667 10.8942 5.3667C12.688 5.3667 14.1533 6.80837 14.1533 8.5917C14.1533 10.375 12.688 11.8084 10.8942 11.8084ZM10.8942 6.6167C9.79937 6.6167 8.89827 7.50003 8.89827 8.5917C8.89827 9.68337 9.79095 10.5667 10.8942 10.5667C11.9974 10.5667 12.8901 9.68337 12.8901 8.5917C12.8901 7.50003 11.989 6.6167 10.8942 6.6167Z" fill="#7B79DC"/>
<path d="M10.8942 18.9667C9.64779 18.9667 8.39298 18.5001 7.41609 17.5751C4.93174 15.2084 2.18633 11.4334 3.22217 6.94175C4.15696 2.86675 7.75295 1.04175 10.8942 1.04175C10.8942 1.04175 10.8942 1.04175 10.9026 1.04175C14.0438 1.04175 17.6398 2.86675 18.5746 6.95008C19.602 11.4417 16.8566 15.2084 14.3723 17.5751C13.3954 18.5001 12.1406 18.9667 10.8942 18.9667ZM10.8942 2.29175C8.44351 2.29175 5.29387 3.58341 4.46013 7.21675C3.55061 11.1417 6.04338 14.5251 8.30035 16.6667C9.75727 18.0584 12.0395 18.0584 13.4964 16.6667C15.745 14.5251 18.2377 11.1417 17.3451 7.21675C16.5029 3.58341 13.3448 2.29175 10.8942 2.29175Z" fill="#7B79DC"/>
</svg>
