<svg width="16" height="16" viewBox="0 0 16 16" fill="none" xmlns="http://www.w3.org/2000/svg">
<path d="M8.00217 10.5022C5.24217 10.5026 3.0019 8.33618 3.00157 5.66952C3.00124 3.00285 5.24098 0.835906 8.00098 0.835566C10.761 0.835227 13.0012 3.00162 13.0016 5.66828C13.0019 8.33495 10.7622 10.5019 8.00217 10.5022ZM8.0011 1.83557C5.79443 1.83584 4.00131 3.55606 4.00157 5.66939C4.00183 7.78273 5.79538 9.5025 8.00204 9.50223C10.2087 9.50196 12.0018 7.78174 12.0016 5.66841C12.0013 3.55507 10.2078 1.83529 8.0011 1.83557Z" fill="#7B79DC"/>
<path d="M10.416 15.1684C10.2293 15.1685 10.0426 15.1218 9.84927 15.0352L8.05583 14.1887C8.03583 14.1821 7.9625 14.1821 7.93584 14.1887L6.15595 15.029C5.76264 15.2157 5.34931 15.2091 5.02928 15.0024C4.69592 14.7891 4.50254 14.3958 4.50915 13.9292L4.5152 9.00917C4.51516 8.73584 4.72847 8.49582 5.01514 8.50911C5.28847 8.50908 5.51516 8.73572 5.5152 9.00905L5.50915 13.9291C5.50917 14.0757 5.54917 14.149 5.56918 14.1557C5.58251 14.1624 5.64251 14.169 5.73584 14.1223L7.5224 13.2755C7.80905 13.1421 8.20239 13.1421 8.48907 13.2753L10.2825 14.1218C10.3758 14.1684 10.4358 14.1618 10.4492 14.1551C10.4692 14.1418 10.5092 14.0684 10.5092 13.9284L10.5085 8.88842C10.5085 8.61509 10.7351 8.38839 11.0085 8.38836C11.2818 8.38833 11.5085 8.61497 11.5085 8.8883L11.5092 13.9283C11.5092 14.4017 11.3159 14.7883 10.9826 15.0017C10.8093 15.1151 10.616 15.1684 10.416 15.1684Z" fill="#7B79DC"/>
</svg>
