<svg width="24" height="24" viewBox="0 0 24 24" fill="none" xmlns="http://www.w3.org/2000/svg">
<path d="M15.1118 19.5566H0.888932C0.65318 19.5566 0.427067 19.6503 0.260374 19.817C0.0936058 19.9837 0 20.2098 0 20.4456V23.1124C0 23.3481 0.0936153 23.5742 0.260374 23.7409C0.427048 23.9077 0.653164 24.0013 0.888932 24.0013H15.1118C15.3476 24.0013 15.5737 23.9077 15.7404 23.7409C15.9072 23.5743 16.0008 23.3481 16.0008 23.1124V20.4456C16.0008 20.2098 15.9072 19.9837 15.7404 19.817C15.5737 19.6502 15.3476 19.5566 15.1118 19.5566ZM2.22233 22.6679C1.98658 22.6679 1.76046 22.5743 1.59377 22.4075C1.427 22.2409 1.3334 22.0147 1.3334 21.779C1.3334 21.5432 1.42701 21.3171 1.59377 21.1504C1.76045 20.9836 1.98656 20.89 2.22233 20.89C2.4581 20.89 2.6842 20.9837 2.85089 21.1504C3.01766 21.3171 3.11126 21.5432 3.11126 21.779C3.11126 22.0147 3.01765 22.2408 2.85089 22.4075C2.68422 22.5743 2.4581 22.6679 2.22233 22.6679ZM4.88913 22.6679C4.65338 22.6679 4.42726 22.5743 4.26057 22.4075C4.0938 22.2409 4.0002 22.0147 4.0002 21.779C4.0002 21.5432 4.09381 21.3171 4.26057 21.1504C4.42724 20.9836 4.65336 20.89 4.88913 20.89C5.1249 20.89 5.35099 20.9837 5.51768 21.1504C5.68445 21.3171 5.77806 21.5432 5.77806 21.779C5.77806 22.0147 5.68444 22.2408 5.51768 22.4075C5.35101 22.5743 5.1249 22.6679 4.88913 22.6679Z" fill="#FABE45"/>
<path d="M15.1118 14.2229H0.888932C0.65318 14.2229 0.427067 14.3165 0.260374 14.4833C0.0936058 14.6499 0 14.8761 0 15.1118V17.7786C0 18.0144 0.0936153 18.2405 0.260374 18.4072C0.427048 18.574 0.653164 18.6676 0.888932 18.6676H15.1118C15.3476 18.6676 15.5737 18.5739 15.7404 18.4072C15.9072 18.2405 16.0008 18.0144 16.0008 17.7786V15.1118C16.0008 14.8761 15.9072 14.65 15.7404 14.4833C15.5737 14.3165 15.3476 14.2229 15.1118 14.2229ZM2.22233 17.3342C1.98658 17.3342 1.76046 17.2405 1.59377 17.0738C1.427 16.9071 1.3334 16.681 1.3334 16.4452C1.3334 16.2095 1.42701 15.9834 1.59377 15.8167C1.76045 15.6499 1.98656 15.5563 2.22233 15.5563C2.4581 15.5563 2.6842 15.6499 2.85089 15.8167C3.01766 15.9833 3.11126 16.2095 3.11126 16.4452C3.11126 16.681 3.01765 16.9071 2.85089 17.0738C2.68422 17.2406 2.4581 17.3342 2.22233 17.3342ZM4.88913 17.3342C4.65338 17.3342 4.42726 17.2405 4.26057 17.0738C4.0938 16.9071 4.0002 16.681 4.0002 16.4452C4.0002 16.2095 4.09381 15.9834 4.26057 15.8167C4.42724 15.6499 4.65336 15.5563 4.88913 15.5563C5.1249 15.5563 5.35099 15.6499 5.51768 15.8167C5.68445 15.9833 5.77806 16.2095 5.77806 16.4452C5.77806 16.681 5.68444 16.9071 5.51768 17.0738C5.35101 17.2406 5.1249 17.3342 4.88913 17.3342Z" fill="#FABE45"/>
<path d="M23.9998 2.6668C23.9998 4.13965 20.4178 5.33359 15.9994 5.33359C11.5811 5.33359 7.99902 4.13965 7.99902 2.6668C7.99902 1.19394 11.5811 0 15.9994 0C20.4178 0 23.9998 1.19394 23.9998 2.6668Z" fill="#FABE45"/>
<path d="M23.9998 4.28467V8.0004C23.9998 8.836 22.4975 9.73382 20.2573 10.2227C18.8581 10.5243 17.4305 10.6733 15.9994 10.6672C14.5682 10.6733 13.1406 10.5243 11.7415 10.2227C9.51922 9.72493 7.99902 8.82711 7.99902 8.0004V4.28467C9.53688 5.55141 12.8393 6.22254 15.9994 6.22254C19.1595 6.22254 22.4618 5.55141 23.9998 4.28467Z" fill="#FABE45"/>
<path d="M24 9.60913V13.7783C24 14.6139 22.4977 15.5118 20.2575 16.0007C19.0045 16.2764 17.7268 16.4253 16.4439 16.4451V15.1117C16.4439 14.7581 16.3034 14.4189 16.0533 14.1689C15.8033 13.9188 15.4641 13.7783 15.1105 13.7783H7.99902V9.60913C9.05545 10.3721 10.2712 10.8858 11.5548 11.1114C13.016 11.4189 14.5062 11.5678 15.9994 11.5559C17.4926 11.5678 18.9829 11.4188 20.4441 11.1114C21.7276 10.8858 22.9433 10.3721 23.9998 9.60913H24Z" fill="#FABE45"/>
</svg>
