<svg width="24" height="24" viewBox="0 0 24 24" fill="none" xmlns="http://www.w3.org/2000/svg">
<path d="M0 6.22217V23.5555C0 23.6734 0.0468253 23.7864 0.130175 23.8698C0.213524 23.9531 0.32657 23.9999 0.444444 23.9999H23.5556C23.6734 23.9999 23.7865 23.9531 23.8698 23.8698C23.9532 23.7864 24 23.6734 24 23.5555V6.22217H0ZM9.38222 17.4266C9.45533 17.4833 9.5089 17.5615 9.53547 17.6501C9.56204 17.7388 9.56027 17.8335 9.53042 17.9211C9.50057 18.0087 9.44412 18.0848 9.36896 18.1387C9.29379 18.1927 9.20365 18.2219 9.11111 18.2222C9.01291 18.2219 8.91758 18.189 8.84 18.1288L4.84 15.0177C4.78647 14.9762 4.74315 14.9229 4.71334 14.8621C4.68354 14.8012 4.66805 14.7344 4.66805 14.6666C4.66805 14.5989 4.68354 14.532 4.71334 14.4711C4.74315 14.4103 4.78647 14.357 4.84 14.3155L8.84 11.2044C8.93364 11.1409 9.04796 11.1155 9.15967 11.1334C9.27138 11.1513 9.37206 11.2111 9.44121 11.3006C9.51035 11.3902 9.54274 11.5027 9.53178 11.6153C9.52082 11.7279 9.46733 11.8321 9.38222 11.9066L5.82667 14.6666L9.38222 17.4266ZM13.4267 10.6666L11.4356 18.8755C11.4112 18.9741 11.3538 19.0614 11.273 19.1229C11.1921 19.1843 11.0926 19.2162 10.9911 19.2133H10.8844C10.7711 19.1849 10.6735 19.113 10.6128 19.0132C10.5521 18.9134 10.5331 18.7936 10.56 18.6799L12.5511 10.4711C12.5845 10.363 12.6579 10.2718 12.7562 10.2159C12.8545 10.1601 12.9705 10.1438 13.0804 10.1704C13.1903 10.1971 13.2859 10.2646 13.3477 10.3592C13.4096 10.4539 13.4331 10.5686 13.4133 10.6799L13.4267 10.6666ZM19.16 15.0177L15.16 18.1288C15.0824 18.189 14.9871 18.2219 14.8889 18.2222C14.7964 18.2219 14.7062 18.1927 14.631 18.1387C14.5559 18.0848 14.4994 18.0087 14.4696 17.9211C14.4397 17.8335 14.438 17.7388 14.4645 17.6501C14.4911 17.5615 14.5447 17.4833 14.6178 17.4266L18.1733 14.6666L14.6178 11.9066C14.5327 11.8321 14.4792 11.7279 14.4682 11.6153C14.4573 11.5027 14.4897 11.3902 14.5588 11.3006C14.6279 11.2111 14.7286 11.1513 14.8403 11.1334C14.952 11.1155 15.0664 11.1409 15.16 11.2044L19.16 14.3155C19.2135 14.357 19.2569 14.4103 19.2867 14.4711C19.3165 14.532 19.332 14.5989 19.332 14.6666C19.332 14.7344 19.3165 14.8012 19.2867 14.8621C19.2569 14.9229 19.2135 14.9762 19.16 15.0177Z" fill="#9F79DC"/>
<path d="M23.5556 0H0.444444C0.32657 0 0.213524 0.0468254 0.130175 0.130175C0.0468253 0.213524 0 0.32657 0 0.444445V5.33333H24V0.444445C24 0.32657 23.9532 0.213524 23.8698 0.130175C23.7865 0.0468254 23.6734 0 23.5556 0ZM15.1111 3.11111C15.1111 3.46473 14.9706 3.80387 14.7206 4.05392C14.4705 4.30397 14.1314 4.44445 13.7778 4.44445H2.22222C1.8686 4.44445 1.52946 4.30397 1.27941 4.05392C1.02936 3.80387 0.888889 3.46473 0.888889 3.11111V2.22222C0.888889 1.8686 1.02936 1.52946 1.27941 1.27941C1.52946 1.02936 1.8686 0.888889 2.22222 0.888889H13.7778C14.1314 0.888889 14.4705 1.02936 14.7206 1.27941C14.9706 1.52946 15.1111 1.8686 15.1111 2.22222V3.11111ZM16.8889 3.55556C16.7131 3.55556 16.5412 3.50342 16.395 3.40575C16.2489 3.30808 16.1349 3.16925 16.0677 3.00683C16.0004 2.84441 15.9828 2.66568 16.0171 2.49325C16.0514 2.32083 16.136 2.16244 16.2603 2.03813C16.3847 1.91381 16.543 1.82916 16.7155 1.79486C16.8879 1.76056 17.0666 1.77816 17.2291 1.84544C17.3915 1.91272 17.5303 2.02665 17.628 2.17283C17.7256 2.319 17.7778 2.49086 17.7778 2.66667C17.7778 2.90242 17.6841 3.12851 17.5174 3.29521C17.3507 3.46191 17.1246 3.55556 16.8889 3.55556ZM19.5556 3.55556C19.3797 3.55556 19.2079 3.50342 19.0617 3.40575C18.9155 3.30808 18.8016 3.16925 18.7343 3.00683C18.6671 2.84441 18.6494 2.66568 18.6837 2.49325C18.718 2.32083 18.8027 2.16244 18.927 2.03813C19.0513 1.91381 19.2097 1.82916 19.3821 1.79486C19.5546 1.76056 19.7333 1.77816 19.8957 1.84544C20.0581 1.91272 20.197 2.02665 20.2946 2.17283C20.3923 2.319 20.4444 2.49086 20.4444 2.66667C20.4444 2.90242 20.3508 3.12851 20.1841 3.29521C20.0174 3.46191 19.7913 3.55556 19.5556 3.55556ZM22.2222 3.55556C22.0464 3.55556 21.8746 3.50342 21.7284 3.40575C21.5822 3.30808 21.4683 3.16925 21.401 3.00683C21.3337 2.84441 21.3161 2.66568 21.3504 2.49325C21.3847 2.32083 21.4694 2.16244 21.5937 2.03813C21.718 1.91381 21.8764 1.82916 22.0488 1.79486C22.2212 1.76056 22.4 1.77816 22.5624 1.84544C22.7248 1.91272 22.8636 2.02665 22.9613 2.17283C23.059 2.319 23.1111 2.49086 23.1111 2.66667C23.1111 2.90242 23.0175 3.12851 22.8508 3.29521C22.6841 3.46191 22.458 3.55556 22.2222 3.55556Z" fill="#9F79DC"/>
<path d="M13.7783 1.77783H2.22276C1.9773 1.77783 1.77832 1.97682 1.77832 2.22228V3.11117C1.77832 3.35663 1.9773 3.55561 2.22276 3.55561H13.7783C14.0238 3.55561 14.2228 3.35663 14.2228 3.11117V2.22228C14.2228 1.97682 14.0238 1.77783 13.7783 1.77783Z" fill="#9F79DC"/>
</svg>
