<svg width="40" height="40" viewBox="0 0 40 40" fill="none" xmlns="http://www.w3.org/2000/svg">
<circle cx="20" cy="20" r="20" fill="#F5F2FF"/>
<path d="M15.4585 30.2087C16.4002 30.2087 17.3918 29.9837 18.4168 29.5503C19.4168 29.1253 20.4252 28.542 21.4085 27.8337C22.3835 27.117 23.3252 26.317 24.2168 25.442C25.1002 24.5503 25.9002 23.6087 26.6085 22.642C27.3252 21.642 27.9002 20.642 28.3085 19.6753C28.7418 18.642 28.9585 17.642 28.9585 16.7003C28.9585 16.0503 28.8418 15.4337 28.6168 14.8587C28.3835 14.267 28.0085 13.717 27.5002 13.242C26.8585 12.6087 26.1252 12.292 25.3418 12.292C25.0168 12.292 24.6835 12.367 24.4002 12.5003C24.0752 12.6503 23.8002 12.8753 23.6002 13.1753L21.6668 15.9003C21.4918 16.142 21.3585 16.3753 21.2668 16.6087C21.1585 16.8587 21.1002 17.1087 21.1002 17.3503C21.1002 17.667 21.1918 17.9753 21.3668 18.267C21.4918 18.492 21.6835 18.7337 21.9252 18.9753L22.4918 19.567C22.4835 19.592 22.4752 19.6087 22.4668 19.6253C22.3668 19.8003 22.1668 20.1003 21.7835 20.5503C21.3752 21.017 20.9918 21.442 20.6085 21.8337C20.1168 22.317 19.7085 22.7003 19.3252 23.017C18.8502 23.417 18.5418 23.617 18.3585 23.7087L18.3752 23.7503L17.7668 23.1503C17.5085 22.892 17.2585 22.7003 17.0168 22.5753C16.5585 22.292 15.9752 22.242 15.3918 22.4837C15.1752 22.5753 14.9418 22.7003 14.6918 22.8753L11.9251 24.842C11.6168 25.0503 11.3918 25.317 11.2585 25.6337C11.1335 25.9503 11.0751 26.242 11.0751 26.5337C11.0751 26.9337 11.1668 27.3337 11.3418 27.7087C11.5168 28.0837 11.7335 28.4087 12.0085 28.7087C12.4835 29.2337 13.0002 29.6087 13.6002 29.8503C14.1752 30.0837 14.8002 30.2087 15.4585 30.2087ZM25.3418 13.542C25.8002 13.542 26.2252 13.742 26.6335 14.142C27.0168 14.5003 27.2835 14.892 27.4502 15.317C27.6252 15.7503 27.7085 16.2087 27.7085 16.7003C27.7085 17.4753 27.5252 18.317 27.1585 19.1837C26.7835 20.067 26.2585 20.9837 25.5918 21.9003C24.9252 22.817 24.1668 23.7087 23.3335 24.5503C22.5002 25.3753 21.6002 26.142 20.6752 26.817C19.7752 27.4753 18.8502 28.0087 17.9335 28.392C16.5085 29.0003 15.1752 29.142 14.0752 28.6837C13.6502 28.5087 13.2752 28.242 12.9335 27.8587C12.7418 27.6503 12.5918 27.4253 12.4668 27.1587C12.3668 26.9503 12.3168 26.7337 12.3168 26.517C12.3168 26.3837 12.3418 26.2503 12.4085 26.1003C12.4335 26.0503 12.4835 25.9587 12.6418 25.8503L15.4085 23.8837C15.5752 23.767 15.7252 23.6837 15.8668 23.6253C16.0502 23.5503 16.1252 23.4753 16.4085 23.6503C16.5752 23.7337 16.7252 23.8587 16.8918 24.0253L17.5252 24.6503C17.8502 24.967 18.3502 25.042 18.7335 24.9003L18.9585 24.8003C19.3002 24.617 19.7002 24.3337 20.1418 23.9587C20.5418 23.617 20.9752 23.217 21.5002 22.7003C21.9085 22.2837 22.3168 21.842 22.7418 21.3503C23.1335 20.892 23.4168 20.5003 23.5918 20.1753L23.6918 19.9253C23.7418 19.7337 23.7585 19.6253 23.7585 19.5087C23.7585 19.2087 23.6502 18.942 23.4418 18.7337L22.8168 18.0837C22.6502 17.917 22.5252 17.7587 22.4418 17.617C22.3752 17.5087 22.3502 17.417 22.3502 17.3337C22.3502 17.267 22.3752 17.167 22.4168 17.067C22.4752 16.9337 22.5668 16.7837 22.6835 16.6253L24.6168 13.892C24.7002 13.7753 24.8002 13.692 24.9252 13.6337C25.0585 13.5753 25.2002 13.542 25.3418 13.542ZM18.3752 23.7587L18.5085 24.3253L18.2835 23.742C18.3252 23.7337 18.3585 23.742 18.3752 23.7587Z" fill="#7B79DC"/>
</svg>
