<svg width="24" height="24" viewBox="0 0 24 24" fill="none" xmlns="http://www.w3.org/2000/svg">
<path fill-rule="evenodd" clip-rule="evenodd" d="M2.38737 2.37419C0.943876 3.8247 0.0948466 5.76403 0.00747909 7.81029C-0.0798884 9.85655 0.600738 11.8614 1.91532 13.4301C3.22991 14.9988 5.08318 16.0176 7.11017 16.2858C9.13716 16.5541 11.191 16.0524 12.8671 14.8795C12.9633 14.8111 13.0806 14.7793 13.1981 14.7895C13.3156 14.7998 13.4256 14.8517 13.5084 14.9357L15.5258 16.9566C15.5751 16.8866 15.6305 16.8212 15.6915 16.7612L16.7603 15.6905C16.8202 15.6295 16.8855 15.5739 16.9554 15.5246L14.9219 13.5144C14.838 13.4314 14.7863 13.3212 14.776 13.2035C14.7657 13.0859 14.7976 12.9684 14.8658 12.872C16.0301 11.1932 16.5261 9.1391 16.2564 7.11284C15.9867 5.08657 14.9709 3.23439 13.4082 1.91974C11.8455 0.605084 9.84879 -0.0771367 7.80984 0.00694097C5.77089 0.0910187 3.8369 0.935326 2.38737 2.37419ZM9.53509 4.17558L3.4642 7.68734C3.43017 7.70703 3.39259 7.7198 3.35363 7.72494C3.31466 7.73008 3.27506 7.72748 3.2371 7.71729C3.19914 7.7071 3.16355 7.68952 3.13237 7.66555C3.10119 7.64158 3.07503 7.6117 3.05538 7.5776C3.03573 7.5435 3.02298 7.50586 3.01785 7.46683C3.01272 7.4278 3.01531 7.38814 3.02549 7.35011C3.03566 7.31208 3.05321 7.27643 3.07714 7.2452C3.10106 7.21396 3.1309 7.18776 3.16493 7.16807L9.23849 3.65631L8.47696 3.45288C8.43288 3.44966 8.39006 3.43669 8.35158 3.41492C8.3131 3.39315 8.2799 3.36311 8.25439 3.32696C8.22887 3.29081 8.21167 3.24945 8.20401 3.20585C8.19635 3.16225 8.19843 3.11748 8.21009 3.07478C8.22175 3.03208 8.24271 2.99249 8.27146 2.95887C8.30021 2.92525 8.33604 2.89842 8.37637 2.88032C8.41671 2.86221 8.46054 2.85328 8.50473 2.85417C8.54891 2.85505 8.59236 2.86573 8.63193 2.88543L10.0882 3.27622C10.1263 3.28618 10.1621 3.30358 10.1935 3.32741C10.2248 3.35125 10.2512 3.38106 10.2711 3.41512C10.2909 3.44919 10.3039 3.48685 10.3092 3.52594C10.3145 3.56503 10.312 3.60478 10.302 3.64292L9.91184 5.1017C9.90184 5.13984 9.88444 5.17563 9.86063 5.20703C9.83682 5.23843 9.80707 5.26483 9.77308 5.28471C9.73909 5.30459 9.70152 5.31758 9.66252 5.32292C9.62352 5.32826 9.58385 5.32585 9.54577 5.31583C9.5077 5.30581 9.47197 5.28838 9.44062 5.26453C9.40928 5.24068 9.38293 5.21088 9.36308 5.17683C9.34323 5.14278 9.33027 5.10514 9.32494 5.06607C9.3196 5.027 9.32201 4.98727 9.33201 4.94913L9.53509 4.18628V4.17558ZM17.1745 16.1268C17.3634 15.9377 17.6195 15.8315 17.8866 15.8315C18.1536 15.8315 18.4098 15.9377 18.5987 16.1268L18.7403 16.2687L16.2579 18.7553L16.119 18.6134C15.9302 18.4242 15.8242 18.1676 15.8242 17.9001C15.8242 17.6326 15.9302 17.376 16.119 17.1868L17.1878 16.1161L17.1745 16.1268ZM16.6801 19.1809L19.1651 16.6916L23.1144 20.6477L20.6294 23.137L16.6801 19.1809ZM21.0676 23.5626L21.2092 23.7044C21.3986 23.8937 21.6552 24 21.9227 24C22.1902 24 22.4468 23.8937 22.6361 23.7044L23.7049 22.6338C23.8939 22.4441 24 22.1871 24 21.9191C24 21.6511 23.8939 21.3941 23.7049 21.2044L23.5393 21.0867L21.0676 23.5626ZM3.59246 3.58136C4.65181 2.51861 6.04628 1.85673 7.53822 1.70852C9.03016 1.56031 10.5272 1.93493 11.7743 2.76855C13.0214 3.60217 13.9414 4.84319 14.3774 6.28013C14.8133 7.71707 14.7384 9.26099 14.1653 10.6488C13.5923 12.0366 12.5565 13.1824 11.2346 13.8909C9.91263 14.5994 8.38633 14.8268 6.91578 14.5343C5.44523 14.2418 4.12143 13.4476 3.16998 12.2869C2.21853 11.1262 1.69831 9.67098 1.69798 8.16914C1.69707 7.3172 1.86393 6.47346 2.18901 5.68621C2.5141 4.89897 2.99102 4.1837 3.59246 3.58136ZM12.6507 11.986C12.0362 12.7059 11.2569 13.2661 10.3795 13.6188V6.01176C10.3794 5.95635 10.3904 5.90148 10.4116 5.85032C10.4329 5.79916 10.464 5.75272 10.5033 5.71366C10.5425 5.6746 10.5891 5.6437 10.6403 5.62274C10.6915 5.60178 10.7463 5.59117 10.8016 5.59152H12.2232C12.3344 5.59152 12.4411 5.6358 12.5198 5.71461C12.5985 5.79342 12.6427 5.90031 12.6427 6.01176V11.986H12.6507ZM9.31063 13.9454C8.56313 14.0899 7.79492 14.0899 7.04741 13.9454V7.76497C7.04741 7.6528 7.09189 7.54523 7.17107 7.46592C7.25024 7.38661 7.35763 7.34205 7.4696 7.34205H8.88311C8.939 7.34135 8.99447 7.35176 9.04631 7.3727C9.09815 7.39363 9.14533 7.42467 9.1851 7.46401C9.22487 7.50336 9.25644 7.55022 9.27799 7.60188C9.29954 7.65354 9.31064 7.70897 9.31063 7.76497V13.9454ZM5.95455 13.6188C5.08361 13.2624 4.31037 12.7026 3.69934 11.986V9.51549C3.69934 9.40333 3.74382 9.29576 3.823 9.21645C3.90217 9.13714 4.00956 9.09258 4.12153 9.09258H5.54038C5.65235 9.09258 5.75973 9.13714 5.83891 9.21645C5.91808 9.29576 5.96256 9.40333 5.96256 9.51549L5.95455 13.6188Z" fill="#03B88D"/>
</svg>
