<svg width="110" height="20" viewBox="0 0 110 20" fill="none" xmlns="http://www.w3.org/2000/svg">
<path d="M11.8804 2.59355L13.4709 5.79585C13.6852 6.23873 14.2605 6.65889 14.7456 6.74973L17.622 7.22667C19.4606 7.53327 19.8893 8.87325 18.5695 10.2132L16.3248 12.473C15.9525 12.8477 15.7382 13.5859 15.8623 14.1196L16.5053 16.9131C17.0129 19.1161 15.8397 19.9791 13.9108 18.8208L11.2149 17.2083C10.7299 16.9131 9.9177 16.9131 9.43266 17.2083L6.73672 18.8208C4.80783 19.9677 3.6347 19.1161 4.1423 16.9131L4.78527 14.1196C4.88679 13.5745 4.67247 12.8364 4.30022 12.4616L2.05549 10.2019C0.735723 8.87324 1.16437 7.53327 3.00302 7.21531L5.87943 6.73838C6.36448 6.65889 6.93976 6.22737 7.15408 5.7845L8.74457 2.58219C9.61314 0.85613 11.0119 0.856131 11.8804 2.59355Z" fill="#FFB547" fill-opacity="0.5"/>
<path d="M34.3804 2.59355L35.9709 5.79585C36.1852 6.23873 36.7605 6.65889 37.2456 6.74973L40.122 7.22667C41.9606 7.53327 42.3893 8.87325 41.0695 10.2132L38.8248 12.473C38.4525 12.8477 38.2382 13.5859 38.3623 14.1196L39.0053 16.9131C39.5129 19.1161 38.3397 19.9791 36.4108 18.8208L33.7149 17.2083C33.2299 16.9131 32.4177 16.9131 31.9327 17.2083L29.2367 18.8208C27.3078 19.9677 26.1347 19.1161 26.6423 16.9131L27.2853 14.1196C27.3868 13.5745 27.1725 12.8364 26.8002 12.4616L24.5555 10.2019C23.2357 8.87324 23.6644 7.53327 25.503 7.21531L28.3794 6.73838C28.8645 6.65889 29.4398 6.22737 29.6541 5.7845L31.2446 2.58219C32.1131 0.85613 33.5119 0.856131 34.3804 2.59355Z" fill="#FFB547"/>
<path d="M56.8804 2.59355L58.4709 5.79585C58.6852 6.23873 59.2605 6.65889 59.7456 6.74973L62.622 7.22667C64.4606 7.53327 64.8893 8.87325 63.5695 10.2132L61.3248 12.473C60.9525 12.8477 60.7382 13.5859 60.8623 14.1196L61.5053 16.9131C62.0129 19.1161 60.8397 19.9791 58.9108 18.8208L56.2149 17.2083C55.7299 16.9131 54.9177 16.9131 54.4327 17.2083L51.7367 18.8208C49.8078 19.9677 48.6347 19.1161 49.1423 16.9131L49.7853 14.1196C49.8868 13.5745 49.6725 12.8364 49.3002 12.4616L47.0555 10.2019C45.7357 8.87324 46.1644 7.53327 48.003 7.21531L50.8794 6.73838C51.3645 6.65889 51.9398 6.22737 52.1541 5.7845L53.7446 2.58219C54.6131 0.85613 56.0119 0.856131 56.8804 2.59355Z" fill="#FFB547"/>
<path d="M79.3804 2.59355L80.9709 5.79585C81.1852 6.23873 81.7605 6.65889 82.2456 6.74973L85.122 7.22667C86.9606 7.53327 87.3893 8.87325 86.0695 10.2132L83.8248 12.473C83.4525 12.8477 83.2382 13.5859 83.3623 14.1196L84.0053 16.9131C84.5129 19.1161 83.3397 19.9791 81.4108 18.8208L78.7149 17.2083C78.2299 16.9131 77.4177 16.9131 76.9327 17.2083L74.2367 18.8208C72.3078 19.9677 71.1347 19.1161 71.6423 16.9131L72.2853 14.1196C72.3868 13.5745 72.1725 12.8364 71.8002 12.4616L69.5555 10.2019C68.2357 8.87324 68.6644 7.53327 70.503 7.21531L73.3794 6.73838C73.8645 6.65889 74.4398 6.22737 74.6541 5.7845L76.2446 2.58219C77.1131 0.85613 78.5119 0.856131 79.3804 2.59355Z" fill="#FFB547"/>
<path d="M101.88 2.59355L103.471 5.79585C103.685 6.23873 104.261 6.65889 104.746 6.74973L107.622 7.22667C109.461 7.53327 109.889 8.87325 108.57 10.2132L106.325 12.473C105.953 12.8477 105.738 13.5859 105.862 14.1196L106.505 16.9131C107.013 19.1161 105.84 19.9791 103.911 18.8208L101.215 17.2083C100.73 16.9131 99.9177 16.9131 99.4327 17.2083L96.7367 18.8208C94.8078 19.9677 93.6347 19.1161 94.1423 16.9131L94.7853 14.1196C94.8868 13.5745 94.6725 12.8364 94.3002 12.4616L92.0555 10.2019C90.7357 8.87324 91.1644 7.53327 93.003 7.21531L95.8794 6.73838C96.3645 6.65889 96.9398 6.22737 97.1541 5.7845L98.7446 2.58219C99.6131 0.85613 101.012 0.856131 101.88 2.59355Z" fill="#FFB547"/>
</svg>
