<svg width="40" height="40" viewBox="0 0 40 40" fill="none" xmlns="http://www.w3.org/2000/svg">
<path d="M19.9999 3.33334C10.8166 3.33334 3.33325 10.8167 3.33325 20C3.33325 29.1833 10.8166 36.6667 19.9999 36.6667C29.1833 36.6667 36.6666 29.1833 36.6666 20C36.6666 10.8167 29.1833 3.33334 19.9999 3.33334ZM27.9666 16.1667L18.5166 25.6167C18.2833 25.85 17.9666 25.9833 17.6333 25.9833C17.2999 25.9833 16.9833 25.85 16.7499 25.6167L12.0333 20.9C11.5499 20.4167 11.5499 19.6167 12.0333 19.1333C12.5166 18.65 13.3166 18.65 13.7999 19.1333L17.6333 22.9667L26.1999 14.4C26.6833 13.9167 27.4833 13.9167 27.9666 14.4C28.4499 14.8833 28.4499 15.6667 27.9666 16.1667Z" fill="#7B79DC"/>
</svg>
