<svg width="20" height="20" viewBox="0 0 20 20" fill="none" xmlns="http://www.w3.org/2000/svg">
<path d="M12.2036 14.331C12.2372 14.331 12.2608 14.368 12.2742 14.442C12.2944 14.5159 12.3045 14.6672 12.3045 14.8957C12.3045 15.1108 12.2944 15.252 12.2742 15.3192C12.2608 15.3865 12.2372 15.4201 12.2036 15.4201H11.9011C11.3633 15.4201 10.9566 15.2621 10.681 14.9461C10.4053 14.6302 10.2675 14.1831 10.2675 13.605V8.90595H11.3062V13.5344C11.3062 13.81 11.3566 14.0117 11.4574 14.1394C11.565 14.2672 11.733 14.331 11.9616 14.331H12.2036Z" fill="black"/>
<path d="M12.4491 14.331C12.6709 14.331 12.8289 14.2873 12.923 14.1999C13.0239 14.1058 13.0743 13.9613 13.0743 13.7663V13.4134C13.0743 12.768 13.2524 12.2571 13.6087 11.8807C13.9717 11.5042 14.4625 11.316 15.081 11.316C15.6994 11.316 16.1734 11.4975 16.5028 11.8605C16.8322 12.2168 16.9969 12.7311 16.9969 13.4033C16.9969 14.042 16.8221 14.5394 16.4725 14.8957C16.1297 15.2453 15.6524 15.4201 15.0406 15.4201C14.6978 15.4201 14.4087 15.373 14.1734 15.2789C13.9381 15.1781 13.7667 15.0403 13.6591 14.8655C13.5381 15.0604 13.3802 15.2016 13.1852 15.289C12.997 15.3764 12.7516 15.4201 12.4491 15.4201H12.2071C12.1399 15.4201 12.1062 15.2453 12.1062 14.8957C12.1062 14.5193 12.1399 14.331 12.2071 14.331H12.4491ZM15.9583 13.4033C15.9583 13.0538 15.8809 12.7949 15.7263 12.6269C15.5784 12.4521 15.3499 12.3647 15.0406 12.3647C14.7314 12.3647 14.4995 12.4521 14.3448 12.6269C14.1969 12.7949 14.123 13.0571 14.123 13.4134C14.123 13.7092 14.2003 13.9378 14.3549 14.0991C14.5095 14.2537 14.7381 14.331 15.0406 14.331C15.3499 14.331 15.5784 14.2571 15.7263 14.1092C15.8809 13.9546 15.9583 13.7193 15.9583 13.4033Z" fill="black"/>
<path d="M5.74711 18.0851C4.88663 18.0851 4.22446 17.8363 3.76061 17.3389C3.29675 16.8481 3.06482 16.1557 3.06482 15.2616V13.3054H4.10345V15.2415C4.10345 16.4112 4.6547 16.996 5.7572 16.996H6.17063C6.70843 16.996 7.13195 16.8481 7.44119 16.5523C7.75042 16.2566 7.90504 15.8498 7.90504 15.3322V12.297H8.95376V15.2415C8.95376 15.833 8.83611 16.3406 8.60082 16.7641C8.36554 17.1943 8.03613 17.5204 7.61261 17.7422C7.19582 17.9708 6.71516 18.0851 6.17063 18.0851H5.74711ZM5.20259 12.055V11.0668H6.41264V12.055H5.20259Z" fill="black"/>
<path d="M7.89064 6.37636C7.95786 6.37636 7.99147 6.56459 7.99147 6.94106C7.99147 7.29063 7.95786 7.46541 7.89064 7.46541H6.99318C6.92595 8.23178 6.66041 8.83009 6.19656 9.26033C5.73943 9.69057 5.13776 9.90569 4.39156 9.90569H3.09075L3 8.81664H4.42181C4.89911 8.81664 5.27557 8.69564 5.5512 8.45362C5.82682 8.21161 5.96799 7.88221 5.97472 7.46541H5.10751C4.39492 7.46541 3.88401 7.32088 3.57478 7.03181C3.26554 6.73602 3.11092 6.27553 3.11092 5.65033C3.11092 5.22009 3.19159 4.84027 3.35293 4.51086C3.521 4.18146 3.75292 3.926 4.04871 3.7445C4.35123 3.55626 4.69744 3.46215 5.08734 3.46215C5.68565 3.46215 6.15623 3.66383 6.49907 4.06718C6.84192 4.46381 7.01335 5.00833 7.01335 5.70075V6.37636H7.89064ZM4.15964 5.59991C4.15964 5.88226 4.23358 6.08393 4.38148 6.20494C4.52937 6.31922 4.78819 6.37636 5.15793 6.37636H5.97472V5.72092C5.97472 5.32429 5.89405 5.02514 5.73271 4.82346C5.57137 4.61506 5.33944 4.51086 5.03693 4.51086C4.7613 4.51086 4.54618 4.6117 4.39156 4.81338C4.23694 5.00833 4.15964 5.27051 4.15964 5.59991Z" fill="black"/>
<path d="M9.40124 6.37636C9.46846 6.37636 9.50207 6.56459 9.50207 6.94106C9.50207 7.16962 9.49199 7.31416 9.47182 7.37466C9.45165 7.43516 9.42813 7.46541 9.40124 7.46541H7.88867C7.82144 7.46541 7.78783 7.29063 7.78783 6.94106C7.78783 6.56459 7.82144 6.37636 7.88867 6.37636H9.40124Z" fill="black"/>
<path d="M10.9177 6.37636C10.985 6.37636 11.0186 6.56459 11.0186 6.94106C11.0186 7.16962 11.0085 7.31416 10.9883 7.37466C10.9682 7.43516 10.9446 7.46541 10.9177 7.46541H9.40517C9.33795 7.46541 9.30434 7.29063 9.30434 6.94106C9.30434 6.56459 9.33795 6.37636 9.40517 6.37636H10.9177Z" fill="black"/>
<path d="M12.4342 6.37636C12.5015 6.37636 12.5351 6.56459 12.5351 6.94106C12.5351 7.16962 12.525 7.31416 12.5048 7.37466C12.4847 7.43516 12.4611 7.46541 12.4342 7.46541H10.9217C10.8545 7.46541 10.8208 7.29063 10.8208 6.94106C10.8208 6.56459 10.8545 6.37636 10.9217 6.37636H12.4342Z" fill="black"/>
<path d="M13.9508 6.37636C14.018 6.37636 14.0516 6.56459 14.0516 6.94106C14.0516 7.16962 14.0415 7.31416 14.0213 7.37466C14.0012 7.43516 13.9776 7.46541 13.9508 7.46541H12.4382C12.371 7.46541 12.3374 7.29063 12.3374 6.94106C12.3374 6.56459 12.371 6.37636 12.4382 6.37636H13.9508Z" fill="black"/>
<path d="M16.7277 5.77134C16.7277 6.30242 16.5698 6.71921 16.2538 7.02173C15.9378 7.31752 15.5143 7.46541 14.9832 7.46541H13.9547C13.8875 7.46541 13.8539 7.29063 13.8539 6.94106C13.8539 6.56459 13.8875 6.37636 13.9547 6.37636H14.9832C15.1916 6.37636 15.3597 6.32258 15.4874 6.21502C15.6152 6.10074 15.679 5.94276 15.679 5.74109V4.1176H16.7277V5.77134ZM17 2V2.96804H14.2572V2H17Z" fill="black"/>
</svg>
