<svg width="67" height="12" viewBox="0 0 67 12" fill="none" xmlns="http://www.w3.org/2000/svg">
<g opacity="0.5" clip-path="url(#clip0_355_9113)">
<path d="M7.24789 1.55613L8.20218 3.47751C8.33077 3.74324 8.67594 3.99533 8.96697 4.04984L10.6928 4.336C11.796 4.51996 12.0532 5.32395 11.2613 6.12793L9.91449 7.4838C9.69115 7.70864 9.56256 8.15151 9.637 8.47174L10.0228 10.1478C10.3273 11.4696 9.62347 11.9875 8.46613 11.2925L6.84857 10.325C6.55755 10.1478 6.07025 10.1478 5.77922 10.325L4.16166 11.2925C3.00433 11.9806 2.30045 11.4696 2.60501 10.1478L2.99079 8.47174C3.0517 8.1447 2.92311 7.70183 2.69976 7.47698L1.35292 6.12112C0.561063 5.32395 0.818248 4.51996 1.92144 4.32919L3.64729 4.04303C3.93831 3.99533 4.28348 3.73642 4.41208 3.4707L5.36637 1.54932C5.88751 0.513678 6.72675 0.513678 7.24789 1.55613Z" fill="#FFB547"/>
</g>
<g opacity="0.5" clip-path="url(#clip1_355_9113)">
<path d="M20.7479 1.55613L21.7022 3.47751C21.8308 3.74324 22.1759 3.99533 22.467 4.04984L24.1928 4.336C25.296 4.51996 25.5532 5.32395 24.7613 6.12793L23.4145 7.4838C23.1911 7.70864 23.0626 8.15151 23.137 8.47174L23.5228 10.1478C23.8273 11.4696 23.1235 11.9875 21.9661 11.2925L20.3486 10.325C20.0575 10.1478 19.5702 10.1478 19.2792 10.325L17.6617 11.2925C16.5043 11.9806 15.8004 11.4696 16.105 10.1478L16.4908 8.47174C16.5517 8.1447 16.4231 7.70183 16.1998 7.47698L14.8529 6.12112C14.0611 5.32395 14.3182 4.51996 15.4214 4.32919L17.1473 4.04303C17.4383 3.99533 17.7835 3.73642 17.9121 3.4707L18.8664 1.54932C19.3875 0.513678 20.2267 0.513678 20.7479 1.55613Z" fill="#FFB547"/>
</g>
<g opacity="0.5" clip-path="url(#clip2_355_9113)">
<path d="M34.2479 1.55613L35.2022 3.47751C35.3308 3.74324 35.6759 3.99533 35.967 4.04984L37.6928 4.336C38.796 4.51996 39.0532 5.32395 38.2613 6.12793L36.9145 7.4838C36.6911 7.70864 36.5626 8.15151 36.637 8.47174L37.0228 10.1478C37.3273 11.4696 36.6235 11.9875 35.4661 11.2925L33.8486 10.325C33.5575 10.1478 33.0702 10.1478 32.7792 10.325L31.1617 11.2925C30.0043 11.9806 29.3004 11.4696 29.605 10.1478L29.9908 8.47174C30.0517 8.1447 29.9231 7.70183 29.6998 7.47698L28.3529 6.12112C27.5611 5.32395 27.8182 4.51996 28.9214 4.32919L30.6473 4.04303C30.9383 3.99533 31.2835 3.73642 31.4121 3.4707L32.3664 1.54932C32.8875 0.513678 33.7267 0.513678 34.2479 1.55613Z" fill="#FFB547"/>
</g>
<g clip-path="url(#clip3_355_9113)">
<path d="M47.7479 1.55613L48.7022 3.47751C48.8308 3.74324 49.1759 3.99533 49.467 4.04984L51.1928 4.336C52.296 4.51996 52.5532 5.32395 51.7613 6.12793L50.4145 7.4838C50.1911 7.70864 50.0626 8.15151 50.137 8.47174L50.5228 10.1478C50.8273 11.4696 50.1235 11.9875 48.9661 11.2925L47.3486 10.325C47.0575 10.1478 46.5702 10.1478 46.2792 10.325L44.6617 11.2925C43.5043 11.9806 42.8004 11.4696 43.105 10.1478L43.4908 8.47174C43.5517 8.1447 43.4231 7.70183 43.1998 7.47698L41.8529 6.12112C41.0611 5.32395 41.3182 4.51996 42.4214 4.32919L44.1473 4.04303C44.4383 3.99533 44.7835 3.73642 44.9121 3.4707L45.8664 1.54932C46.3875 0.513678 47.2267 0.513678 47.7479 1.55613Z" fill="#FFB547"/>
</g>
<g clip-path="url(#clip4_355_9113)">
<path d="M61.2479 1.55613L62.2022 3.47751C62.3308 3.74324 62.6759 3.99533 62.967 4.04984L64.6928 4.336C65.796 4.51996 66.0532 5.32395 65.2613 6.12793L63.9145 7.4838C63.6911 7.70864 63.5626 8.15151 63.637 8.47174L64.0228 10.1478C64.3273 11.4696 63.6235 11.9875 62.4661 11.2925L60.8486 10.325C60.5575 10.1478 60.0702 10.1478 59.7792 10.325L58.1617 11.2925C57.0043 11.9806 56.3004 11.4696 56.605 10.1478L56.9908 8.47174C57.0517 8.1447 56.9231 7.70183 56.6998 7.47698L55.3529 6.12112C54.5611 5.32395 54.8182 4.51996 55.9214 4.32919L57.6473 4.04303C57.9383 3.99533 58.2835 3.73642 58.4121 3.4707L59.3664 1.54932C59.8875 0.513678 60.7267 0.513678 61.2479 1.55613Z" fill="#FFB547"/>
</g>
<defs>
<clipPath id="clip0_355_9113">
<rect width="12" height="12" fill="white" transform="translate(0.119629)"/>
</clipPath>
<clipPath id="clip1_355_9113">
<rect width="12" height="12" fill="white" transform="translate(13.6196)"/>
</clipPath>
<clipPath id="clip2_355_9113">
<rect width="12" height="12" fill="white" transform="translate(27.1196)"/>
</clipPath>
<clipPath id="clip3_355_9113">
<rect width="12" height="12" fill="white" transform="translate(40.6196)"/>
</clipPath>
<clipPath id="clip4_355_9113">
<rect width="12" height="12" fill="white" transform="translate(54.1196)"/>
</clipPath>
</defs>
</svg>
