<svg width="80" height="80" viewBox="0 0 80 80" fill="none" xmlns="http://www.w3.org/2000/svg">
<rect width="80" height="80" rx="8" fill="#FEEAF2"/>
<g filter="url(#filter0_di_42_3484)">
<path d="M56.3333 62H52.8333V64.3333H56.3333V62Z" fill="#E4026F"/>
<path d="M64.5 13H15.5C14.5726 13.0028 13.684 13.3724 13.0282 14.0282C12.3724 14.684 12.0028 15.5726 12 16.5L12 60.8333C12.0028 61.7607 12.3724 62.6494 13.0282 63.3052C13.684 63.9609 14.5726 64.3306 15.5 64.3333H45.8333V62H15.5C15.1906 62 14.8938 61.8771 14.675 61.6583C14.4562 61.4395 14.3333 61.1428 14.3333 60.8333V24.6667H65.6667V29.3333H66.8333C67.1427 29.3333 67.4395 29.4563 67.6583 29.675C67.8771 29.8938 68 30.1906 68 30.5V16.5C67.9972 15.5726 67.6276 14.684 66.9718 14.0282C66.316 13.3724 65.4274 13.0028 64.5 13ZM17.8333 20C17.6026 20 17.377 19.9316 17.1852 19.8034C16.9933 19.6752 16.8438 19.493 16.7555 19.2798C16.6672 19.0666 16.6441 18.832 16.6891 18.6057C16.7341 18.3794 16.8452 18.1715 17.0084 18.0084C17.1715 17.8452 17.3794 17.7341 17.6057 17.6891C17.832 17.6441 18.0666 17.6672 18.2798 17.7555C18.493 17.8438 18.6752 17.9933 18.8034 18.1852C18.9316 18.377 19 18.6026 19 18.8333C19 19.1428 18.8771 19.4395 18.6583 19.6583C18.4395 19.8771 18.1428 20 17.8333 20ZM21.3333 20C21.1026 20 20.877 19.9316 20.6852 19.8034C20.4933 19.6752 20.3438 19.493 20.2555 19.2798C20.1672 19.0666 20.1441 18.832 20.1891 18.6057C20.2341 18.3794 20.3452 18.1715 20.5084 18.0084C20.6715 17.8452 20.8794 17.7341 21.1057 17.6891C21.332 17.6441 21.5666 17.6672 21.7798 17.7555C21.993 17.8438 22.1752 17.9933 22.3034 18.1852C22.4316 18.377 22.5 18.6026 22.5 18.8333C22.5 19.1428 22.3771 19.4395 22.1583 19.6583C21.9395 19.8771 21.6428 20 21.3333 20ZM24.8333 20C24.6026 20 24.377 19.9316 24.1852 19.8034C23.9933 19.6752 23.8438 19.493 23.7555 19.2798C23.6672 19.0666 23.6441 18.832 23.6891 18.6057C23.7341 18.3794 23.8452 18.1715 24.0084 18.0084C24.1715 17.8452 24.3794 17.7341 24.6057 17.6891C24.832 17.6441 25.0666 17.6672 25.2798 17.7555C25.493 17.8438 25.6752 17.9933 25.8034 18.1852C25.9316 18.377 26 18.6026 26 18.8333C26 19.1428 25.8771 19.4395 25.6583 19.6583C25.4395 19.8771 25.1428 20 24.8333 20Z" fill="#E4026F"/>
<path d="M62.1666 28.1666H17.8333V44.5H45.8333V42.1666C45.8337 41.4635 46.0451 40.7767 46.4399 40.195C45.8419 39.7537 45.3656 39.168 45.0555 38.4927C44.7454 37.8174 44.6116 37.0744 44.6666 36.3333C44.6666 33.335 48.1433 30.01 48.5399 29.6483C48.7545 29.4459 49.0383 29.3332 49.3333 29.3332C49.6282 29.3332 49.912 29.4459 50.1266 29.6483C50.5233 30.01 53.9999 33.335 53.9999 36.3333C54.0549 37.0744 53.9211 37.8174 53.611 38.4927C53.3009 39.168 52.8246 39.7537 52.2266 40.195C52.6214 40.7767 52.8328 41.4635 52.8333 42.1666V44.5H56.3333V30.5C56.3333 30.1905 56.4562 29.8938 56.675 29.675C56.8937 29.4562 57.1905 29.3333 57.4999 29.3333H62.1666V28.1666Z" fill="#E4026F"/>
<path d="M38.8333 49.1666H17.8333V58.5H38.8333V49.1666Z" fill="#E4026F"/>
<path d="M58.6667 31.6666V66.6666H65.6667V64.1233C65.2941 64.2646 64.8986 64.3358 64.5001 64.3333H62.1667C61.8573 64.3333 61.5606 64.2104 61.3418 63.9916C61.123 63.7728 61.0001 63.476 61.0001 63.1666C61.0001 62.8572 61.123 62.5605 61.3418 62.3417C61.5606 62.1229 61.8573 62 62.1667 62H65.6667V59.6666H64.5001C64.1907 59.6666 63.8939 59.5437 63.6751 59.3249C63.4563 59.1061 63.3334 58.8094 63.3334 58.5C63.3334 58.1905 63.4563 57.8938 63.6751 57.675C63.8939 57.4562 64.1907 57.3333 64.5001 57.3333H65.6667V55H62.1667C61.8573 55 61.5606 54.877 61.3418 54.6583C61.123 54.4395 61.0001 54.1427 61.0001 53.8333C61.0001 53.5239 61.123 53.2271 61.3418 53.0083C61.5606 52.7895 61.8573 52.6666 62.1667 52.6666H65.6667V50.3333H64.5001C64.1907 50.3333 63.8939 50.2104 63.6751 49.9916C63.4563 49.7728 63.3334 49.476 63.3334 49.1666C63.3334 48.8572 63.4563 48.5605 63.6751 48.3417C63.8939 48.1229 64.1907 48 64.5001 48H65.6667V45.6666H62.1667C61.8573 45.6666 61.5606 45.5437 61.3418 45.3249C61.123 45.1061 61.0001 44.8094 61.0001 44.5C61.0001 44.1905 61.123 43.8938 61.3418 43.675C61.5606 43.4562 61.8573 43.3333 62.1667 43.3333H65.6667V41H64.5001C64.1907 41 63.8939 40.877 63.6751 40.6583C63.4563 40.4395 63.3334 40.1427 63.3334 39.8333C63.3334 39.5239 63.4563 39.2271 63.6751 39.0083C63.8939 38.7895 64.1907 38.6666 64.5001 38.6666H65.6667V36.3333H62.1667C61.8573 36.3333 61.5606 36.2104 61.3418 35.9916C61.123 35.7728 61.0001 35.476 61.0001 35.1666C61.0001 34.8572 61.123 34.5605 61.3418 34.3417C61.5606 34.1229 61.8573 34 62.1667 34H65.6667V31.6666H58.6667Z" fill="#E4026F"/>
<path d="M48.1667 62V65.5C48.1667 65.8095 48.2897 66.1062 48.5085 66.325C48.7272 66.5438 49.024 66.6667 49.3334 66.6667C49.6428 66.6667 49.9396 66.5438 50.1584 66.325C50.3772 66.1062 50.5001 65.8095 50.5001 65.5V50.3334H48.1667V62Z" fill="#E4026F"/>
<path d="M49.3334 41C49.024 41 48.7272 41.1229 48.5085 41.3417C48.2897 41.5605 48.1667 41.8572 48.1667 42.1667V48H50.5001V42.1667C50.5001 41.8572 50.3772 41.5605 50.1584 41.3417C49.9396 41.1229 49.6428 41 49.3334 41Z" fill="#E4026F"/>
<path d="M47 36.3335C47 37.9435 47.7233 38.6668 49.3333 38.6668C50.9433 38.6668 51.6667 37.9435 51.6667 36.3335C51.6667 35.0501 50.325 33.2768 49.3333 32.1685C48.225 33.3935 47 35.1318 47 36.3335Z" fill="#E4026F"/>
</g>
<defs>
<filter id="filter0_di_42_3484" x="3.6" y="8.6" width="72.8" height="70.4667" filterUnits="userSpaceOnUse" color-interpolation-filters="sRGB">
<feFlood flood-opacity="0" result="BackgroundImageFix"/>
<feColorMatrix in="SourceAlpha" type="matrix" values="0 0 0 0 0 0 0 0 0 0 0 0 0 0 0 0 0 0 127 0" result="hardAlpha"/>
<feOffset dy="4"/>
<feGaussianBlur stdDeviation="4.2"/>
<feComposite in2="hardAlpha" operator="out"/>
<feColorMatrix type="matrix" values="0 0 0 0 0.361667 0 0 0 0 0.361667 0 0 0 0 0.361667 0 0 0 0.2 0"/>
<feBlend mode="normal" in2="BackgroundImageFix" result="effect1_dropShadow_42_3484"/>
<feBlend mode="normal" in="SourceGraphic" in2="effect1_dropShadow_42_3484" result="shape"/>
<feColorMatrix in="SourceAlpha" type="matrix" values="0 0 0 0 0 0 0 0 0 0 0 0 0 0 0 0 0 0 127 0" result="hardAlpha"/>
<feOffset dy="2"/>
<feGaussianBlur stdDeviation="1.85"/>
<feComposite in2="hardAlpha" operator="arithmetic" k2="-1" k3="1"/>
<feColorMatrix type="matrix" values="0 0 0 0 1 0 0 0 0 1 0 0 0 0 1 0 0 0 0.12 0"/>
<feBlend mode="normal" in2="shape" result="effect2_innerShadow_42_3484"/>
</filter>
</defs>
</svg>
