<svg width="24" height="25" viewBox="0 0 24 25" fill="none" xmlns="http://www.w3.org/2000/svg">
<path d="M6.54999 23.25C7.67999 23.25 8.86999 22.98 10.1 22.46C11.3 21.95 12.51 21.25 13.69 20.4C14.86 19.54 15.99 18.58 17.06 17.53C18.12 16.46 19.08 15.33 19.93 14.17C20.79 12.97 21.48 11.77 21.97 10.61C22.49 9.37001 22.75 8.17001 22.75 7.04C22.75 6.26 22.61 5.52 22.34 4.83C22.06 4.12 21.61 3.46 21 2.89C20.23 2.13 19.35 1.75 18.41 1.75C18.02 1.75 17.62 1.84 17.28 2C16.89 2.18 16.56 2.45 16.32 2.81L14 6.08C13.79 6.37 13.63 6.65 13.52 6.93C13.39 7.23 13.32 7.53001 13.32 7.82001C13.32 8.20001 13.43 8.57001 13.64 8.92001C13.79 9.19001 14.02 9.48001 14.31 9.77001L14.99 10.48C14.98 10.51 14.97 10.53 14.96 10.55C14.84 10.76 14.6 11.12 14.14 11.66C13.65 12.22 13.19 12.73 12.73 13.2C12.14 13.78 11.65 14.24 11.19 14.62C10.62 15.1 10.25 15.34 10.03 15.45L10.05 15.5L9.31999 14.78C9.00999 14.47 8.70999 14.24 8.41999 14.09C7.86999 13.75 7.16999 13.69 6.46999 13.98C6.20999 14.09 5.92999 14.24 5.62998 14.45L2.30998 16.81C1.93998 17.06 1.66998 17.38 1.50998 17.76C1.35998 18.14 1.28998 18.49 1.28998 18.84C1.28998 19.32 1.39998 19.8 1.60998 20.25C1.81998 20.7 2.07998 21.09 2.40998 21.45C2.97998 22.08 3.59998 22.53 4.31998 22.82C5.00998 23.1 5.75999 23.25 6.54999 23.25ZM18.41 3.25C18.96 3.25 19.47 3.49 19.96 3.97C20.42 4.4 20.74 4.87 20.94 5.38C21.15 5.9 21.25 6.45 21.25 7.04C21.25 7.97001 21.03 8.98001 20.59 10.02C20.14 11.08 19.51 12.18 18.71 13.28C17.91 14.38 17 15.45 16 16.46C15 17.45 13.92 18.37 12.81 19.18C11.73 19.97 10.62 20.61 9.51999 21.07C7.80999 21.8 6.20999 21.97 4.88998 21.42C4.37998 21.21 3.92998 20.89 3.51998 20.43C3.28998 20.18 3.10998 19.91 2.95998 19.59C2.83998 19.34 2.77998 19.08 2.77998 18.82C2.77998 18.66 2.80998 18.5 2.88998 18.32C2.91998 18.26 2.97998 18.15 3.16998 18.02L6.48999 15.66C6.68999 15.52 6.86999 15.42 7.03999 15.35C7.25999 15.26 7.34999 15.17 7.68999 15.38C7.88999 15.48 8.06999 15.63 8.26999 15.83L9.02999 16.58C9.41999 16.96 10.02 17.05 10.48 16.88L10.75 16.76C11.16 16.54 11.64 16.2 12.17 15.75C12.65 15.34 13.17 14.86 13.8 14.24C14.29 13.74 14.78 13.21 15.29 12.62C15.76 12.07 16.1 11.6 16.31 11.21L16.43 10.91C16.49 10.68 16.51 10.55 16.51 10.41C16.51 10.05 16.38 9.73001 16.13 9.48001L15.38 8.70001C15.18 8.50001 15.03 8.31001 14.93 8.14001C14.85 8.01001 14.82 7.90001 14.82 7.80001C14.82 7.72001 14.85 7.6 14.9 7.48C14.97 7.32 15.08 7.14 15.22 6.95L17.54 3.67C17.64 3.53 17.76 3.43 17.91 3.36C18.07 3.29 18.24 3.25 18.41 3.25ZM10.05 15.51L10.21 16.19L9.93999 15.49C9.98999 15.48 10.03 15.49 10.05 15.51Z" fill="#F5F2FF"/>
</svg>
