<svg width="18" height="19" viewBox="0 0 18 19" fill="none" xmlns="http://www.w3.org/2000/svg">
<path d="M1.27056 2.56604C0.92178 2.56604 0.622824 2.44147 0.373695 2.19234C0.124565 1.94321 0 1.63595 0 1.27056C0 0.905171 0.124565 0.606215 0.373695 0.373694C0.622824 0.124565 0.92178 0 1.27056 0C1.61934 0 1.9183 0.124565 2.16743 0.373694C2.41656 0.606215 2.54112 0.905171 2.54112 1.27056C2.54112 1.63595 2.41656 1.94321 2.16743 2.19234C1.9183 2.44147 1.61934 2.56604 1.27056 2.56604ZM1.27056 5.13207C1.75213 5.13207 2.14252 5.52246 2.14252 6.00403V17.8626C2.14252 18.3442 1.75213 18.7346 1.27056 18.7346C0.788995 18.7346 0.398608 18.3442 0.398608 17.8626V6.00403C0.398608 5.52246 0.788995 5.13207 1.27056 5.13207Z" fill="#F5F2FF"/>
<path d="M12.4693 4.88294C14.097 4.88294 15.4257 5.38951 16.4554 6.40263C17.4851 7.39915 18 8.85241 18 10.7624V17.8751C18 18.3497 17.6152 18.7346 17.1405 18.7346C16.6658 18.7346 16.281 18.3497 16.281 17.8751V10.9617C16.281 9.48354 15.9073 8.35415 15.1599 7.57355C14.4292 6.79294 13.4243 6.40263 12.1455 6.40263C10.8334 6.40263 9.78704 6.81785 9.00643 7.64828C8.22582 8.47872 7.83552 9.69945 7.83552 11.3105V17.8626C7.83552 18.3442 7.44513 18.7346 6.96357 18.7346C6.482 18.7346 6.09161 18.3442 6.09161 17.8626V6.00403C6.09161 5.52246 6.482 5.13207 6.96357 5.13207C7.44513 5.13207 7.83552 5.52246 7.83552 6.00403V6.29053C7.83552 6.58694 8.29227 6.71756 8.49049 6.49718C8.83195 6.11754 9.23645 5.80368 9.70399 5.55559C10.5178 5.10716 11.4396 4.88294 12.4693 4.88294Z" fill="#F5F2FF"/>
</svg>
